<svg width="35" height="35" viewBox="0 0 35 35" fill="none" xmlns="http://www.w3.org/2000/svg">
<g clip-path="url(#clip0_4330_6004)">
<rect width="35" height="35" fill="white"/>
<path d="M15.8407 16.4746H26.0138L17.0433 10.4945C16.8751 10.3824 16.6768 10.3223 16.4746 10.3223H14.4238C14.0693 10.3223 13.7388 10.5065 13.5506 10.8089C13.3644 11.1113 13.3484 11.4888 13.5065 11.8063L15.8407 16.4746Z" fill="#66CCFF"/>
<path d="M34.8544 18.5254C34.3958 16.7612 32.8035 15.4492 30.8985 15.4492H7.7484L3.739 11.6311C3.54875 11.4488 3.29439 11.3477 3.03203 11.3477H1.02534C0.666864 11.3477 0.336416 11.5339 0.150137 11.8403C-0.0361421 12.1458 -0.0501557 12.5262 0.114112 12.8447L3.05472 18.5254L3.78507 19.9363C4.31376 20.9637 5.36123 21.6015 6.51876 21.6015H32.9492C34.0808 21.6015 35 20.6813 35 19.5508C35 19.1947 34.9401 18.8551 34.8544 18.5254Z" fill="#EDF1F9"/>
<path d="M6.51872 21.6015H32.9492C34.0808 21.6015 35 20.6812 35 19.5507C35 19.1946 34.9402 18.855 34.8544 18.5253H3.05469L3.78504 19.9363C4.31373 20.9636 5.3612 21.6015 6.51872 21.6015Z" fill="#D8E0F0"/>
<path d="M11.3476 8.27147H3.07617C1.3799 8.27147 0 6.89157 0 5.1953C0 3.80946 0.921277 2.56648 2.18298 2.18298C2.56744 0.921278 3.74103 0 5.12694 0C6.46473 0 7.60428 0.857157 8.02688 2.05078H11.3476C13.0439 2.05078 14.4238 3.49904 14.4238 5.1953C14.4238 6.89157 13.0439 8.27147 11.3476 8.27147Z" fill="#EDF1F9"/>
<path d="M31.9238 34.9999H19.5508C17.8545 34.9999 16.4746 33.5517 16.4746 31.8554C16.4746 30.1591 17.8545 28.7792 19.5508 28.7792H22.7291C23.2057 26.4421 25.2785 24.6777 27.7539 24.6777C30.2833 24.6777 32.4585 26.5182 32.8751 28.9294C34.1068 29.331 35 30.4905 35 31.8554C35 33.5517 33.6201 34.9999 31.9238 34.9999Z" fill="#D8E0F0"/>
<path d="M12.013 28.7792H10.3227C9.9341 28.7792 9.57966 28.5599 9.40541 28.2125C9.23116 27.865 9.26924 27.4494 9.50152 27.139L14.1158 20.9867C14.3101 20.7283 14.6145 20.5761 14.9369 20.5761H19.7034C20.1379 20.5761 20.5265 20.8515 20.6707 21.262C20.8148 21.6726 20.6847 22.1302 20.3443 22.4026L12.6538 28.5549C12.4716 28.7001 12.2453 28.7792 12.013 28.7792Z" fill="#59ABFF"/>
</g>
<defs>
<clipPath id="clip0_4330_6004">
<rect width="35" height="35" fill="white"/>
</clipPath>
</defs>
</svg>
