<svg width="60" height="60" viewBox="0 0 60 60" fill="none" xmlns="http://www.w3.org/2000/svg">
<g clip-path="url(#clip0_4330_5456)">
<path d="M57.947 18.0233L53.387 13.4617L46.5403 6.61833L41.977 2.055C39.457 -0.464998 35.372 -0.464998 32.922 1.98667L23.072 11.8383C23.2086 12.34 23.3336 12.82 23.3336 13.3333C23.3336 14.2174 22.9825 15.0652 22.3573 15.6904C21.7322 16.3155 20.8844 16.6667 20.0003 16.6667C19.487 16.6667 19.007 16.5417 18.572 16.3333L2.05531 32.8517C1.45603 33.4509 0.980642 34.1623 0.656307 34.9453C0.331972 35.7283 0.165039 36.5675 0.165039 37.415C0.165039 38.2625 0.331972 39.1017 0.656307 39.8847C0.980642 40.6677 1.45603 41.3791 2.05531 41.9783L6.61865 46.54L13.462 53.385L18.0236 57.9467C18.6229 58.546 19.3343 59.0213 20.1173 59.3457C20.9003 59.67 21.7395 59.8369 22.587 59.8369C23.4345 59.8369 24.2737 59.67 25.0567 59.3457C25.8396 59.0213 26.5511 58.546 27.1503 57.9467L43.6687 41.43C43.4502 40.9848 43.3356 40.4959 43.3336 40C43.3336 39.1159 43.6848 38.2681 44.31 37.643C44.9351 37.0179 45.7829 36.6667 46.667 36.6667C47.1803 36.6667 47.662 36.7917 48.0953 37L57.9453 27.1483C59.1553 25.9384 59.8353 24.2974 59.8356 22.5862C59.8359 20.875 59.1566 19.2337 57.947 18.0233ZM26.667 23.3333C26.2291 23.3332 25.7956 23.2469 25.3911 23.0792C24.9866 22.9116 24.6191 22.6659 24.3096 22.3562C24.0001 22.0465 23.7546 21.6789 23.5871 21.2743C23.4197 20.8698 23.3335 20.4362 23.3336 19.9983C23.3338 19.5605 23.4201 19.1269 23.5878 18.7225C23.7554 18.318 24.0011 17.9505 24.3108 17.641C24.6205 17.3314 24.9881 17.0859 25.3927 16.9185C25.7972 16.751 26.2308 16.6649 26.6686 16.665C27.5529 16.6652 28.4009 17.0167 29.026 17.6421C29.6511 18.2676 30.0022 19.1157 30.002 20C30.0018 20.8843 29.6503 21.7322 29.0248 22.3574C28.3994 22.9825 27.5513 23.3336 26.667 23.3333ZM33.3336 30C32.8958 29.9999 32.4623 29.9135 32.0578 29.7459C31.6533 29.5782 31.2858 29.3325 30.9763 29.0229C30.6668 28.7132 30.4213 28.3456 30.2538 27.941C30.0863 27.5364 30.0002 27.1028 30.0003 26.665C30.0004 26.2272 30.0868 25.7936 30.2544 25.3891C30.4221 24.9847 30.6678 24.6172 30.9775 24.3076C31.2871 23.9981 31.6548 23.7526 32.0593 23.5851C32.4639 23.4177 32.8975 23.3316 33.3353 23.3317C34.2196 23.3319 35.0676 23.6834 35.6927 24.3088C36.3178 24.9342 36.6689 25.7824 36.6686 26.6667C36.6684 27.5509 36.3169 28.3989 35.6915 29.024C35.0661 29.6492 34.2179 30.0002 33.3336 30ZM40.0003 36.6667C39.5625 36.6666 39.1289 36.5802 38.7244 36.4126C38.32 36.2449 37.9525 35.9992 37.6429 35.6895C37.3334 35.3798 37.0879 35.0122 36.9205 34.6077C36.753 34.2031 36.6669 33.7695 36.667 33.3317C36.6671 32.8938 36.7534 32.4603 36.9211 32.0558C37.0888 31.6513 37.3344 31.2838 37.6441 30.9743C37.9538 30.6648 38.3214 30.4193 38.726 30.2518C39.1306 30.0844 39.5641 29.9982 40.002 29.9983C40.8863 29.9986 41.7342 30.35 42.3594 30.9755C42.9845 31.6009 43.3355 32.4491 43.3353 33.3333C43.3351 34.2176 42.9836 35.0656 42.3582 35.6907C41.7327 36.3158 40.8846 36.6669 40.0003 36.6667Z" fill="#CCD6DD"/>
<path d="M18.3337 50C18.0038 50.0007 17.6811 49.9034 17.4065 49.7204C17.132 49.5374 16.918 49.2769 16.7918 48.9721C16.6655 48.6673 16.6327 48.3318 16.6974 48.0083C16.7621 47.6848 16.9216 47.3878 17.1554 47.155L23.8221 40.4883C23.9768 40.3336 24.1605 40.2108 24.3627 40.1271C24.5649 40.0433 24.7815 40.0002 25.0004 40.0002C25.2192 40.0002 25.4359 40.0433 25.6381 40.1271C25.8403 40.2108 26.024 40.3336 26.1787 40.4883C26.3335 40.6431 26.4562 40.8268 26.54 41.0289C26.6237 41.2311 26.6668 41.4478 26.6668 41.6666C26.6668 41.8855 26.6237 42.1022 26.54 42.3044C26.4562 42.5065 26.3335 42.6902 26.1787 42.845L19.5121 49.5117C19.3575 49.6666 19.1738 49.7896 18.9716 49.8734C18.7694 49.9572 18.5526 50.0002 18.3337 50ZM13.3337 45C13.0038 45.0007 12.6811 44.9034 12.4065 44.7204C12.132 44.5374 11.918 44.2769 11.7918 43.9721C11.6655 43.6673 11.6327 43.3318 11.6974 43.0083C11.7621 42.6848 11.9216 42.3878 12.1554 42.155L23.8221 30.4883C23.9768 30.3336 24.1605 30.2108 24.3627 30.1271C24.5649 30.0433 24.7815 30.0002 25.0004 30.0002C25.2192 30.0002 25.4359 30.0433 25.6381 30.1271C25.8403 30.2108 26.024 30.3336 26.1787 30.4883C26.3335 30.6431 26.4562 30.8268 26.54 31.0289C26.6237 31.2311 26.6668 31.4478 26.6668 31.6666C26.6668 31.8855 26.6237 32.1022 26.54 32.3044C26.4562 32.5065 26.3335 32.6902 26.1787 32.845L14.5121 44.5117C14.3575 44.6666 14.1738 44.7896 13.9716 44.8734C13.7694 44.9572 13.5526 45.0002 13.3337 45ZM8.33372 40C8.00378 40.0007 7.68106 39.9034 7.40652 39.7204C7.13199 39.5374 6.91801 39.2769 6.79176 38.9721C6.66551 38.6673 6.63267 38.3318 6.69741 38.0083C6.76215 37.6848 6.92155 37.3878 7.15538 37.155L18.8221 25.4883C18.9768 25.3336 19.1605 25.2108 19.3627 25.1271C19.5649 25.0433 19.7815 25.0002 20.0004 25.0002C20.2192 25.0002 20.4359 25.0433 20.6381 25.1271C20.8403 25.2108 21.024 25.3336 21.1787 25.4883C21.3335 25.6431 21.4562 25.8268 21.54 26.0289C21.6237 26.2311 21.6668 26.4478 21.6668 26.6666C21.6668 26.8855 21.6237 27.1022 21.54 27.3044C21.4562 27.5065 21.3335 27.6902 21.1787 27.845L9.51205 39.5116C9.35749 39.6666 9.17382 39.7896 8.97161 39.8734C8.76939 39.9572 8.55261 40.0002 8.33372 40ZM33.9954 11.305C33.5871 10.415 33.6137 9.33998 34.3354 8.61998C35.0854 7.86998 36.1004 7.84165 37.0187 8.27998L47.4804 13.1983C47.7904 13.3383 48.0171 13.51 48.1154 13.6083C48.6671 14.16 48.5971 14.995 48.0737 15.5183C47.4821 16.1116 46.8721 16.0983 46.3071 15.815L44.5554 14.91L40.6271 18.8383L41.5171 20.5766C41.8154 21.155 41.8287 21.7633 41.2487 22.3433C40.6821 22.9083 39.7771 22.965 39.2121 22.4C38.9854 22.1733 38.8887 21.9333 38.8454 21.835L33.9954 11.305ZM39.2821 16.28L41.9671 13.595L36.5537 10.81L36.5254 10.8383L39.2821 16.28Z" fill="#99AAB5"/>
</g>
<defs>
<clipPath id="clip0_4330_5456">
<rect width="60" height="60" fill="white"/>
</clipPath>
</defs>
</svg>
