<svg width="22" height="22" viewBox="0 0 22 22" fill="none" xmlns="http://www.w3.org/2000/svg">
<circle cx="11" cy="11" r="10.5" fill="#5EB7FC" fill-opacity="0.16" stroke="#5EB7FC"/>
<path d="M10.7717 13.03L10.5467 10.6L10.6217 10.525C11.5817 10.505 12.3167 10.305 12.8267 9.925C13.3467 9.545 13.6067 9.03 13.6067 8.38C13.6067 7.83 13.4067 7.37 13.0067 7C12.6067 6.62 12.0767 6.43 11.4167 6.43C10.4067 6.43 9.49668 6.9 8.68668 7.84L7.92168 7.105C8.88168 5.945 10.0567 5.365 11.4467 5.365C12.4467 5.365 13.2567 5.645 13.8767 6.205C14.4967 6.765 14.8067 7.485 14.8067 8.365C14.8067 9.255 14.5167 9.955 13.9367 10.465C13.3567 10.965 12.6067 11.28 11.6867 11.41L11.5367 13.03H10.7717ZM10.4567 16V14.425H11.8367V16H10.4567Z" fill="#0090FF"/>
</svg>
