<svg width="24" height="24" viewBox="0 0 24 24" fill="none" xmlns="http://www.w3.org/2000/svg">
<g clip-path="url(#clip0_4330_5271)">
<path d="M23.0525 9.82104C23.0818 9.68797 23.0315 9.54992 22.9235 9.46686C22.8154 9.38384 22.6691 9.37062 22.548 9.43311L22.2822 9.57022C22.8276 8.30375 22.6902 7.13426 22.6822 7.07107C22.6666 6.94747 22.5866 6.84134 22.4721 6.79217C22.3577 6.743 22.2257 6.75814 22.1253 6.83192L21.8386 7.04257C22.2233 5.62967 21.9384 4.46046 21.9227 4.39864C21.8906 4.27184 21.7908 4.17336 21.6636 4.14298C21.5365 4.11261 21.4029 4.15536 21.3169 4.25393L16.2119 10.1104C16.0904 10.2498 16.0976 10.4594 16.2283 10.5901C16.3039 10.6656 16.3455 10.766 16.3455 10.8729C16.3455 10.9797 16.3039 11.0801 16.2283 11.1557C16.1528 11.2312 16.0523 11.2728 15.9455 11.2728C15.8387 11.2728 15.7383 11.2312 15.6627 11.1557C15.5871 11.0801 15.5455 10.9797 15.5456 10.8728C15.5456 10.8606 15.545 10.8486 15.5437 10.8367C15.5247 10.4525 15.2071 10.1455 14.8183 10.1455H14.4183V9.48767C14.4183 8.77864 14.6945 8.11203 15.1958 7.61065L15.3396 7.46684H16.697C16.9175 7.46684 17.0969 7.64628 17.0969 7.86678C17.0969 8.06093 17.2543 8.21834 17.4485 8.21834C17.6427 8.21834 17.8001 8.06093 17.8001 7.86678V6.73953C17.8001 6.13128 17.3052 5.63642 16.697 5.63642H16.4261C16.4041 5.59657 16.3791 5.55898 16.3508 5.52457C16.551 5.29709 16.6728 4.99901 16.6728 4.67286C16.6728 4.08289 16.2748 3.58447 15.7334 3.43095V2.98193C15.7334 2.78778 15.576 2.63037 15.3818 2.63037C15.1877 2.63037 15.0303 2.78778 15.0303 2.98193V3.43095C14.4888 3.58447 14.0909 4.08289 14.0909 4.67286C14.0909 4.8845 14.1424 5.08423 14.2331 5.26067H13.3152C13.121 5.26067 12.9636 5.41807 12.9636 5.61223C12.9636 5.80639 13.121 5.96379 13.3152 5.96379H13.5937L13.1499 6.40756C12.734 6.82343 12.4101 7.30672 12.1879 7.83265C11.9657 7.30676 11.6418 6.82343 11.2259 6.40756L10.7821 5.96379H11.0607C11.2548 5.96379 11.4122 5.80639 11.4122 5.61223C11.4122 5.41807 11.2548 5.26067 11.0607 5.26067H10.1428C10.2334 5.08423 10.2849 4.8845 10.2849 4.67286C10.2849 4.08289 9.887 3.58447 9.34555 3.43095V2.98193C9.34555 2.78778 9.18814 2.63037 8.99398 2.63037C8.79983 2.63037 8.64242 2.78778 8.64242 2.98193V3.43095C8.10102 3.58447 7.70305 4.08293 7.70305 4.6729C7.70305 4.99906 7.82488 5.29714 8.02508 5.52462C7.99672 5.55903 7.97173 5.59662 7.9498 5.63647H7.67886C7.07061 5.63647 6.5758 6.13132 6.5758 6.73957V7.86682C6.5758 8.06098 6.7332 8.21839 6.92736 8.21839C7.12152 8.21839 7.27892 8.06098 7.27892 7.86682C7.27892 7.64628 7.45836 7.46689 7.67886 7.46689H9.03627L9.18008 7.6107C9.68141 8.11207 9.95755 8.77868 9.95755 9.48772V10.1456H9.55761C9.16878 10.1456 8.85116 10.4525 8.83213 10.8367C8.83091 10.8486 8.8303 10.8606 8.8303 10.8729C8.8303 10.9797 8.78872 11.0802 8.71311 11.1557C8.6376 11.2313 8.53719 11.2729 8.43031 11.2729C8.32348 11.2729 8.22308 11.2312 8.14752 11.1557C7.99156 10.9998 7.99156 10.746 8.14752 10.5901C8.2782 10.4594 8.28538 10.2499 8.16397 10.1105L3.05909 4.25398C2.97313 4.1554 2.83953 4.11265 2.71241 4.14303C2.58523 4.1734 2.48539 4.27189 2.45328 4.39868C2.43763 4.46056 2.15272 5.62976 2.53738 7.04262L2.25073 6.83197C2.15038 6.75828 2.01842 6.74309 1.90386 6.79221C1.78934 6.84139 1.70942 6.94751 1.69381 7.07112C1.68584 7.13426 1.54841 8.30375 2.09384 9.57026L1.82797 9.43315C1.70689 9.37067 1.56055 9.38384 1.45255 9.4669C1.34455 9.54996 1.29425 9.68797 1.3235 9.82109C1.34028 9.89745 1.67731 11.377 2.74292 12.4042C2.64219 12.419 2.55177 12.4767 2.49664 12.5643C2.43228 12.6665 2.42492 12.7947 2.47709 12.9035C2.49838 12.9479 2.94195 13.8484 4.04942 14.3821C3.97766 14.4537 3.93875 14.5535 3.94663 14.6571C3.95652 14.7871 4.03747 14.9009 4.157 14.9528C4.20359 14.9731 4.93241 15.2827 5.87492 15.2827C6.18041 15.2827 6.50839 15.2498 6.84284 15.1643C6.83811 15.2402 6.85794 15.3169 6.90163 15.3821C6.96716 15.4797 7.07684 15.5378 7.19356 15.5378C7.20041 15.5378 7.20725 15.5376 7.21409 15.5372C7.25914 15.5345 8.09792 15.4796 8.83039 15.0433V15.6509C7.92205 16.0755 7.32725 16.9946 7.32725 18.0122C7.32725 18.2064 7.48466 18.3638 7.67881 18.3638H8.45464V18.7637C8.45464 18.9843 8.2752 19.1637 8.0547 19.1637H5.81881L2.9698 15.6025C3.08084 15.4304 3.14563 15.2257 3.14563 15.0061C3.14563 14.3979 2.65077 13.9031 2.04256 13.9031C1.43436 13.9031 0.939453 14.3979 0.939453 15.0062C0.939453 15.6144 1.43431 16.1092 2.04252 16.1092C2.1755 16.1092 2.30305 16.0856 2.42117 16.0422L6.27706 20.8621C6.34648 20.9489 6.44867 20.9941 6.5518 20.9941C6.62881 20.9941 6.70639 20.9689 6.77117 20.917C6.92281 20.7957 6.94738 20.5745 6.82606 20.4229L6.38117 19.8668H8.05456C8.66281 19.8668 9.15763 19.3719 9.15763 18.7637V18.3638H9.55756C9.75172 18.3638 9.90913 18.2064 9.90913 18.0122C9.90913 17.5845 10.2571 17.2365 10.6848 17.2365H11.0606C11.4777 17.2365 11.8181 17.5677 11.8347 17.9809C11.8185 18.3606 11.6197 18.7042 11.2951 18.9071L9.70189 19.9029C9.15608 20.244 8.83025 20.8319 8.83025 21.4755V22.5213C8.83025 22.7154 8.98766 22.8728 9.18181 22.8728C9.37597 22.8728 9.53338 22.7154 9.53338 22.5213V21.4755C9.53338 21.0759 9.73569 20.7109 10.0745 20.4991L10.8558 20.0108C10.517 20.4598 10.3333 21.0039 10.3333 21.5763V22.897C10.3333 23.0911 10.4907 23.2485 10.6848 23.2485C10.879 23.2485 11.0364 23.0911 11.0364 22.897V21.5763C11.0364 21.068 11.2343 20.5901 11.5938 20.2307L11.8363 19.9906V23.6486C11.8363 23.8427 11.9937 24.0001 12.1879 24.0001C12.382 24.0001 12.5394 23.8427 12.5394 23.6486V19.9919L12.782 20.2308C13.1414 20.5902 13.3393 21.0681 13.3393 21.5764V22.8971C13.3393 23.0912 13.4968 23.2486 13.6909 23.2486C13.8851 23.2486 14.0425 23.0912 14.0425 22.8971V21.5764C14.0425 21.004 13.8588 20.4599 13.52 20.0109L14.3012 20.4992C14.6401 20.711 14.8424 21.076 14.8424 21.4756V22.5214C14.8424 22.7155 14.9998 22.8729 15.194 22.8729C15.3881 22.8729 15.5455 22.7155 15.5455 22.5214V21.4756C15.5455 20.832 15.2196 20.2441 14.6739 19.903L13.0806 18.9072C12.756 18.7043 12.5573 18.3607 12.5411 17.981C12.5577 17.5678 12.898 17.2366 13.3152 17.2366H13.6909C14.1186 17.2366 14.4666 17.5846 14.4666 18.0123C14.4666 18.2065 14.624 18.3639 14.8182 18.3639H15.2181V18.7638C15.2181 19.0602 15.334 19.3362 15.5444 19.5413C15.7531 19.7446 16.0322 19.8555 16.3334 19.8554C16.3424 19.8554 16.3515 19.8553 16.3606 19.8552H18.3304C18.5935 20.0957 18.9434 20.2427 19.3272 20.2427C20.1426 20.2427 20.806 19.5793 20.806 18.7639C20.806 18.0695 20.325 17.4858 19.6788 17.3276V16.8851C19.6788 16.6909 19.5214 16.5335 19.3272 16.5335C19.133 16.5335 18.9756 16.6909 18.9756 16.8851V17.3276C18.3294 17.4858 17.8484 18.0695 17.8484 18.7639C17.8484 18.8982 17.8667 19.0283 17.9005 19.1521H16.3564C16.3534 19.1521 16.3503 19.1521 16.3473 19.1522C16.2251 19.1548 16.1142 19.1147 16.0352 19.0377C15.9617 18.9662 15.9213 18.8689 15.9213 18.7639V18.3639H16.6971C16.8913 18.3639 17.0487 18.2065 17.0487 18.0124C17.0487 16.9948 16.4539 16.0756 15.5455 15.6511V15.0435C16.2779 15.4797 17.1168 15.5347 17.1618 15.5374C17.1687 15.5377 17.1755 15.538 17.1823 15.538C17.2991 15.538 17.4088 15.4799 17.4743 15.3822C17.518 15.3171 17.5378 15.2404 17.5331 15.1645C17.8675 15.25 18.1955 15.2829 18.501 15.2829C19.4434 15.2828 20.1724 14.9732 20.2189 14.953C20.3384 14.901 20.4194 14.7872 20.4293 14.6573C20.4372 14.5536 20.3983 14.4538 20.3265 14.3822C21.4339 13.8485 21.8775 12.9481 21.8988 12.9037C21.951 12.7947 21.9436 12.6666 21.8793 12.5645C21.8241 12.4769 21.7337 12.4192 21.633 12.4043C22.6987 11.377 23.0357 9.8974 23.0525 9.82104ZM2.04256 15.4061C1.82202 15.4061 1.64263 15.2267 1.64263 15.0062C1.64263 14.7857 1.82206 14.6062 2.04256 14.6062C2.26306 14.6062 2.4425 14.7857 2.4425 15.0062C2.4425 15.2267 2.26306 15.4061 2.04256 15.4061ZM19.3273 17.988C19.755 17.988 20.103 18.336 20.103 18.7638C20.103 19.1915 19.755 19.5394 19.3273 19.5394C18.8996 19.5394 18.5516 19.1915 18.5516 18.7638C18.5516 18.336 18.8996 17.988 19.3273 17.988ZM16.4669 6.33959H16.697C16.9176 6.33959 17.097 6.51903 17.097 6.73957V6.83881C16.973 6.79039 16.838 6.76376 16.697 6.76376H16.0428L16.4669 6.33959ZM15.3819 4.08504C15.706 4.08504 15.9697 4.34871 15.9697 4.6729C15.9697 4.99704 15.7061 5.26072 15.3819 5.26072C15.0577 5.26072 14.7941 4.99704 14.7941 4.6729C14.7941 4.34876 15.0577 4.08504 15.3819 4.08504ZM12.5395 9.57889C12.5395 8.56878 12.9329 7.61909 13.6471 6.90481L14.5881 5.96384H15.7899C15.7982 5.96384 15.806 5.96384 15.8122 5.97875C15.8184 5.9937 15.8129 5.99928 15.807 6.00514L14.6986 7.11354C14.0644 7.74772 13.7152 8.5909 13.7152 9.48772V10.1456H12.5395V9.57889ZM7.67886 6.76376C7.53786 6.76376 7.40295 6.79034 7.27892 6.83881V6.73957C7.27892 6.51903 7.45836 6.33959 7.67886 6.33959H7.90902L8.33319 6.76376H7.67886ZM8.99403 4.08504C9.31817 4.08504 9.58184 4.34871 9.58184 4.6729C9.58184 4.99704 9.31817 5.26072 8.99403 5.26072C8.66989 5.26072 8.40617 4.99704 8.40617 4.6729C8.40617 4.34876 8.66989 4.08504 8.99403 4.08504ZM9.67733 7.1135L8.56892 6.00509C8.56306 5.99923 8.55748 5.99365 8.56367 5.9787C8.56986 5.96379 8.57769 5.96379 8.58603 5.96379H9.78781L10.7288 6.90476C11.4431 7.61904 11.8364 8.56878 11.8364 9.57884V10.1455H10.6608V9.48767C10.6607 8.5909 10.3115 7.74771 9.67733 7.1135ZM5.43388 10.0437C5.59034 10.1586 5.81038 10.125 5.92536 9.96851C6.04034 9.81204 6.00669 9.59201 5.85022 9.47703L3.5967 7.82107C3.09912 6.88118 3.02281 5.93712 3.04738 5.31064L7.45156 10.3632C7.41402 10.4351 7.38505 10.511 7.36428 10.5896L7.13736 10.4229C6.98089 10.3079 6.76086 10.3416 6.64587 10.498C6.53089 10.6544 6.56455 10.8745 6.72097 10.9894L7.76816 11.759C7.78048 11.7681 7.79352 11.7755 7.80655 11.7827C7.9888 11.9082 8.20433 11.976 8.43036 11.976C8.56944 11.976 8.70449 11.9501 8.8303 11.9012V13.0445L3.26094 10.1722C2.61486 9.34897 2.4328 8.41367 2.38948 7.8065L5.43388 10.0437ZM2.27952 10.4571L6.04691 12.4001H3.93153C3.92633 12.3971 3.92131 12.3939 3.91592 12.3912C3.06148 11.9577 2.55341 11.0954 2.27952 10.4571ZM3.47656 13.1032H6.06139L4.77514 13.9137C4.16047 13.7234 3.74056 13.3879 3.47656 13.1032ZM7.2447 14.267C7.24245 14.268 7.24011 14.2689 7.23786 14.27C6.49784 14.6459 5.70369 14.6107 5.1507 14.5081L7.39381 13.0947L7.72522 13.2656L7.2447 14.267ZM7.80875 14.7167L8.35034 13.588L8.83034 13.8356V14.161C8.54366 14.4545 8.14391 14.6221 7.80875 14.7167ZM9.24828 17.6607H8.06309C8.16444 17.1226 8.49472 16.6522 8.96525 16.3737C9.09397 16.6534 9.30739 16.8861 9.57256 17.0391C9.41877 17.2148 9.30552 17.4268 9.24828 17.6607ZM14.0668 16.5334H13.3153C12.8641 16.5334 12.4595 16.7365 12.188 17.056C11.9165 16.7365 11.5119 16.5334 11.0607 16.5334H10.3092C9.88147 16.5334 9.53352 16.1854 9.53352 15.7577V10.8729C9.53352 10.8595 9.54434 10.8487 9.5577 10.8487H14.8183C14.8317 10.8487 14.8425 10.8595 14.8425 10.8729V15.7577C14.8424 16.1854 14.4945 16.5334 14.0668 16.5334ZM16.3128 17.6607H15.1276C15.0703 17.4268 14.9571 17.2148 14.8033 17.0392C15.0685 16.8861 15.2819 16.6534 15.4107 16.3737C15.8812 16.6522 16.2114 17.1226 16.3128 17.6607ZM15.5456 11.9012C15.6714 11.9501 15.8064 11.9759 15.9455 11.9759C16.1716 11.9759 16.3872 11.9082 16.5694 11.7826C16.5824 11.7754 16.5954 11.768 16.6077 11.759L19.4377 9.67939C19.5942 9.5644 19.6279 9.34437 19.5129 9.1879C19.3978 9.03139 19.1778 8.99778 19.0214 9.11276L17.0116 10.5896C16.9909 10.511 16.9619 10.435 16.9243 10.3632L21.3285 5.31064C21.353 5.93731 21.2767 6.88123 20.7792 7.82103L20.245 8.21356C20.0885 8.32854 20.0549 8.54857 20.1699 8.70504C20.2849 8.86151 20.5049 8.89512 20.6614 8.78018L21.9884 7.80504C21.9463 8.41062 21.765 9.34442 21.115 10.1721L15.5456 13.0444V11.9012H15.5456ZM15.5456 14.161V13.8356L16.0256 13.588L16.5672 14.7167C16.2319 14.622 15.8322 14.4544 15.5456 14.161ZM17.138 14.27C17.1358 14.2689 17.1335 14.268 17.1312 14.267L16.6507 13.2656L16.9821 13.0947L19.2252 14.5081C18.672 14.6107 17.8779 14.6458 17.138 14.27ZM19.6008 13.9137L18.3145 13.1032H20.898C20.6335 13.388 20.2134 13.7239 19.6008 13.9137ZM20.4444 12.4001H18.329L22.0963 10.4571C21.8225 11.0955 21.2988 11.9667 20.4444 12.4001Z" fill="#5EB7FC"/>
<path d="M10.7083 3.80667C10.7087 3.80906 10.7091 3.8123 10.7091 3.81619V4.10911C10.7091 4.30327 10.8665 4.46067 11.0607 4.46067H13.3152C13.5094 4.46067 13.6668 4.30327 13.6668 4.10911V3.81619C13.6668 3.8123 13.6672 3.80906 13.6676 3.80667C13.9776 3.53447 14.1085 3.11536 14.0094 2.7098C13.9105 2.30555 13.5827 1.989 13.1743 1.90336C12.9568 1.8577 12.7371 1.87791 12.5395 1.95459V1.07888H12.5637C12.7579 1.07888 12.9153 0.921469 12.9153 0.727313C12.9153 0.533156 12.7579 0.37575 12.5637 0.37575H12.5395V0.351562C12.5395 0.157406 12.3821 0 12.188 0C11.9938 0 11.8364 0.157406 11.8364 0.351562V0.37575H11.8122C11.618 0.37575 11.4606 0.533156 11.4606 0.727313C11.4606 0.921469 11.618 1.07888 11.8122 1.07888H11.8364V1.95459C11.6388 1.87795 11.4192 1.85775 11.2016 1.90331C10.7932 1.98895 10.4654 2.3055 10.3666 2.7098C10.2674 3.11536 10.3983 3.53447 10.7083 3.80667ZM11.0496 2.87681C11.0835 2.7383 11.2053 2.62097 11.3459 2.59148C11.4996 2.55928 11.649 2.61042 11.7458 2.72827C11.8153 2.81288 11.9064 2.87414 12.0078 2.90756C12.0606 2.93916 12.1221 2.95762 12.188 2.95762C12.254 2.95762 12.3155 2.93911 12.3682 2.90752C12.4697 2.87409 12.5607 2.81283 12.6302 2.72822C12.727 2.61037 12.8764 2.55923 13.03 2.59144C13.1707 2.62092 13.2925 2.73825 13.3264 2.87672C13.3804 3.09764 13.2563 3.23316 13.2004 3.28116C13.064 3.39825 12.9805 3.56939 12.966 3.75745H11.4101C11.3957 3.56939 11.312 3.39825 11.1757 3.28116C11.1197 3.23325 10.9955 3.09773 11.0496 2.87681Z" fill="#5EB7FC"/>
<path d="M13.0836 13.8546H13.4743L13.7529 14.4117C13.8145 14.5349 13.9386 14.6062 14.0676 14.6061C14.1205 14.6061 14.1741 14.5942 14.2246 14.5689C14.3982 14.4821 14.4686 14.271 14.3818 14.0973L14.006 13.3458C13.9465 13.2267 13.8248 13.1514 13.6916 13.1514H13.2917V12.7515C13.2917 12.531 13.4711 12.3516 13.6916 12.3516C13.8857 12.3516 14.0432 12.1942 14.0432 12C14.0432 11.8058 13.8857 11.6484 13.6916 11.6484C13.0833 11.6484 12.5885 12.1433 12.5885 12.7515V13.1514H12.5717C12.571 13.1514 12.5704 13.1514 12.5698 13.1514H12.5643H12.1644V12C12.1644 11.8058 12.007 11.6484 11.8128 11.6484C11.6186 11.6484 11.4612 11.8058 11.4612 12V12.0242H11.437C11.2429 12.0242 11.0855 12.1816 11.0855 12.3757C11.0855 12.5699 11.2429 12.7273 11.437 12.7273H11.4612V13.1514H11.437C10.8288 13.1514 10.334 13.6463 10.334 14.2545V15.3818C10.334 15.5759 10.4914 15.7333 10.6855 15.7333C10.8797 15.7333 11.0371 15.5759 11.0371 15.3818V14.2545C11.0371 14.034 11.2165 13.8546 11.437 13.8546H11.4612V15.3818C11.4612 15.576 11.6186 15.7334 11.8128 15.7334C12.007 15.7334 12.1644 15.576 12.1644 15.3818V13.8546H12.3263L12.9894 15.5123C13.0444 15.6498 13.1764 15.7334 13.3159 15.7334C13.3594 15.7334 13.4036 15.7253 13.4464 15.7081C13.6267 15.636 13.7143 15.4314 13.6422 15.2512L13.0836 13.8546Z" fill="#5EB7FC"/>
</g>
<defs>
<clipPath id="clip0_4330_5271">
<rect width="24" height="24" fill="white"/>
</clipPath>
</defs>
</svg>
