<svg width="19" height="17" viewBox="0 0 19 17" fill="none" xmlns="http://www.w3.org/2000/svg">
<path d="M8.58836 1.63971C8.90422 0.754438 10.1562 0.754437 10.4721 1.6397L11.882 5.59137C12.0241 5.98951 12.4011 6.25532 12.8238 6.25532H17.1724C18.1636 6.25532 18.5508 7.54237 17.7242 8.08931L14.3721 10.3071C13.9884 10.561 13.8274 11.0438 13.982 11.4771L15.2995 15.1695C15.6224 16.0746 14.6073 16.8698 13.8058 16.3395L10.082 13.8757C9.74744 13.6544 9.31298 13.6544 8.97842 13.8757L5.25458 16.3395C4.45314 16.8698 3.43801 16.0746 3.76095 15.1695L5.07837 11.4771C5.23297 11.0438 5.07199 10.561 4.68831 10.3071L1.33626 8.08931C0.5096 7.54237 0.896831 6.25532 1.88805 6.25532H6.23657C6.65929 6.25532 7.03635 5.98951 7.17841 5.59137L8.58836 1.63971Z" fill="#FFC107"/>
</svg>
