<svg width="14" height="15" viewBox="0 0 14 15" fill="none" xmlns="http://www.w3.org/2000/svg">
<path d="M12.2733 0.660004H1.77333C1.27556 0.660004 0.855556 0.831115 0.513333 1.17334C0.171111 1.51556 0 1.93556 0 2.43334V12.8867C0 13.3844 0.171111 13.8044 0.513333 14.1467C0.855556 14.4889 1.26 14.66 1.72667 14.66H12.2733C12.74 14.66 13.1444 14.4889 13.4867 14.1467C13.8289 13.8044 14 13.3844 14 12.8867V2.38667C14 1.92 13.8289 1.51556 13.4867 1.17334C13.1444 0.831115 12.7244 0.660004 12.2267 0.660004H12.2733ZM0.886667 4.02C0.886667 3.83334 0.972222 3.66223 1.14333 3.50667C1.31444 3.35111 1.50889 3.27334 1.72667 3.27334H12.2733C12.4911 3.27334 12.6856 3.35111 12.8567 3.50667C13.0278 3.66223 13.1133 3.83334 13.1133 4.02V13.0267C13.1133 13.2444 13.0278 13.4233 12.8567 13.5633C12.6856 13.7033 12.4911 13.7733 12.2733 13.7733H1.77333C1.52444 13.7733 1.31444 13.7033 1.14333 13.5633C0.972222 13.4233 0.886667 13.2444 0.886667 13.0267V4.02ZM5.69333 6.77334C5.94222 6.77334 6.15222 6.68778 6.32333 6.51667C6.49444 6.34556 6.58 6.14334 6.58 5.91C6.58 5.67667 6.49444 5.47445 6.32333 5.30334C6.15222 5.13223 5.94222 5.04667 5.69333 5.04667C5.44444 5.04667 5.23444 5.13223 5.06333 5.30334C4.89222 5.47445 4.80667 5.67667 4.80667 5.91C4.80667 6.14334 4.89222 6.34556 5.06333 6.51667C5.23444 6.68778 5.44444 6.77334 5.69333 6.77334ZM8.30667 6.77334C8.55556 6.77334 8.76556 6.68778 8.93667 6.51667C9.10778 6.34556 9.19333 6.14334 9.19333 5.91C9.19333 5.67667 9.10778 5.47445 8.93667 5.30334C8.76556 5.13223 8.55556 5.04667 8.30667 5.04667C8.05778 5.04667 7.84778 5.13223 7.67667 5.30334C7.50556 5.47445 7.42 5.67667 7.42 5.91C7.42 6.14334 7.50556 6.34556 7.67667 6.51667C7.84778 6.68778 8.05778 6.77334 8.30667 6.77334ZM10.92 6.77334C11.1689 6.77334 11.3789 6.68778 11.55 6.51667C11.7211 6.34556 11.8067 6.14334 11.8067 5.91C11.8067 5.67667 11.7211 5.47445 11.55 5.30334C11.3789 5.13223 11.1767 5.04667 10.9433 5.04667C10.71 5.04667 10.5078 5.13223 10.3367 5.30334C10.1656 5.47445 10.08 5.67667 10.08 5.91C10.08 6.14334 10.1656 6.34556 10.3367 6.51667C10.5078 6.68778 10.7022 6.77334 10.92 6.77334ZM3.08 9.38667C3.29778 9.41778 3.49222 9.34778 3.66333 9.17667C3.83444 9.00556 3.92 8.79556 3.92 8.54667C3.92 8.29778 3.83444 8.08778 3.66333 7.91667C3.49222 7.74556 3.29 7.66 3.05667 7.66C2.82333 7.66 2.62111 7.74556 2.45 7.91667C2.27889 8.08778 2.19333 8.29778 2.19333 8.54667C2.19333 8.79556 2.27889 8.99778 2.45 9.15334C2.62111 9.30889 2.83111 9.38667 3.08 9.38667ZM5.69333 9.38667C5.94222 9.41778 6.15222 9.34778 6.32333 9.17667C6.49444 9.00556 6.58 8.79556 6.58 8.54667C6.58 8.29778 6.49444 8.08778 6.32333 7.91667C6.15222 7.74556 5.94222 7.66 5.69333 7.66C5.44444 7.66 5.23444 7.74556 5.06333 7.91667C4.89222 8.08778 4.80667 8.29778 4.80667 8.54667C4.80667 8.79556 4.89222 9.00556 5.06333 9.17667C5.23444 9.34778 5.44444 9.41778 5.69333 9.38667ZM8.30667 9.38667C8.55556 9.41778 8.76556 9.34778 8.93667 9.17667C9.10778 9.00556 9.19333 8.79556 9.19333 8.54667C9.19333 8.29778 9.10778 8.08778 8.93667 7.91667C8.76556 7.74556 8.55556 7.66 8.30667 7.66C8.05778 7.66 7.84778 7.74556 7.67667 7.91667C7.50556 8.08778 7.42 8.29778 7.42 8.54667C7.42 8.79556 7.50556 9.00556 7.67667 9.17667C7.84778 9.34778 8.05778 9.41778 8.30667 9.38667ZM10.92 9.38667C11.1689 9.41778 11.3789 9.34778 11.55 9.17667C11.7211 9.00556 11.8067 8.79556 11.8067 8.54667C11.8067 8.29778 11.7211 8.08778 11.55 7.91667C11.3789 7.74556 11.1767 7.66 10.9433 7.66C10.71 7.66 10.5078 7.74556 10.3367 7.91667C10.1656 8.08778 10.08 8.29778 10.08 8.54667C10.08 8.79556 10.1656 9.00556 10.3367 9.17667C10.5078 9.34778 10.7022 9.41778 10.92 9.38667ZM3.08 12.0467C3.29778 12.0467 3.49222 11.9611 3.66333 11.79C3.83444 11.6189 3.92 11.4089 3.92 11.16C3.92 10.9111 3.83444 10.7011 3.66333 10.53C3.49222 10.3589 3.29 10.2733 3.05667 10.2733C2.82333 10.2733 2.62111 10.3589 2.45 10.53C2.27889 10.7011 2.19333 10.9111 2.19333 11.16C2.19333 11.4089 2.27889 11.6189 2.45 11.79C2.62111 11.9611 2.83111 12.0467 3.08 12.0467ZM5.69333 12.0467C5.94222 12.0467 6.15222 11.9611 6.32333 11.79C6.49444 11.6189 6.58 11.4089 6.58 11.16C6.58 10.9111 6.49444 10.7011 6.32333 10.53C6.15222 10.3589 5.94222 10.2733 5.69333 10.2733C5.44444 10.2733 5.23444 10.3589 5.06333 10.53C4.89222 10.7011 4.80667 10.9111 4.80667 11.16C4.80667 11.4089 4.89222 11.6189 5.06333 11.79C5.23444 11.9611 5.44444 12.0467 5.69333 12.0467ZM8.30667 12.0467C8.55556 12.0467 8.76556 11.9611 8.93667 11.79C9.10778 11.6189 9.19333 11.4089 9.19333 11.16C9.19333 10.9111 9.10778 10.7011 8.93667 10.53C8.76556 10.3589 8.55556 10.2733 8.30667 10.2733C8.05778 10.2733 7.84778 10.3589 7.67667 10.53C7.50556 10.7011 7.42 10.9111 7.42 11.16C7.42 11.4089 7.50556 11.6189 7.67667 11.79C7.84778 11.9611 8.05778 12.0467 8.30667 12.0467Z" fill="#212529"/>
</svg>
