<svg width="24" height="24" viewBox="0 0 24 24" fill="none" xmlns="http://www.w3.org/2000/svg">
<path d="M4 7.25C3.58579 7.25 3.25 7.58579 3.25 8C3.25 8.41421 3.58579 8.75 4 8.75V8V7.25ZM20 8.75C20.4142 8.75 20.75 8.41421 20.75 8C20.75 7.58579 20.4142 7.25 20 7.25V8V8.75ZM5.0918 19.782L5.43229 19.1137L5.0918 19.782ZM4.21799 18.908L3.54973 19.2485H3.54973L4.21799 18.908ZM19.7822 18.908L19.114 18.5675L19.7822 18.908ZM18.9078 19.782L18.5673 19.1137L18.9078 19.782ZM18.9078 4.21799L19.2483 3.54973L18.9078 4.21799ZM19.7822 5.09204L19.114 5.43253L19.7822 5.09204ZM5.0918 4.21799L5.43229 4.88624L5.0918 4.21799ZM4.21799 5.09204L4.88624 5.43253L4.21799 5.09204ZM15.5303 12.5303C15.8232 12.2374 15.8232 11.7626 15.5303 11.4697C15.2374 11.1768 14.7626 11.1768 14.4697 11.4697L15 12L15.5303 12.5303ZM11 16L10.4697 16.5303C10.7626 16.8232 11.2374 16.8232 11.5303 16.5303L11 16ZM9.53033 13.4697C9.23744 13.1768 8.76256 13.1768 8.46967 13.4697C8.17678 13.7626 8.17678 14.2374 8.46967 14.5303L9 14L9.53033 13.4697ZM16.75 2C16.75 1.58579 16.4142 1.25 16 1.25C15.5858 1.25 15.25 1.58579 15.25 2H16H16.75ZM15.25 4C15.25 4.41421 15.5858 4.75 16 4.75C16.4142 4.75 16.75 4.41421 16.75 4H16H15.25ZM8.75 2C8.75 1.58579 8.41421 1.25 8 1.25C7.58579 1.25 7.25 1.58579 7.25 2H8H8.75ZM7.25 4C7.25 4.41421 7.58579 4.75 8 4.75C8.41421 4.75 8.75 4.41421 8.75 4H8H7.25ZM4 8V8.75H20V8V7.25H4V8ZM7.2002 4V4.75H16.8002V4V3.25H7.2002V4ZM20 7.19995H19.25V16.8H20H20.75V7.19995H20ZM16.8002 20V19.25H7.2002V20V20.75H16.8002V20ZM4 16.8H4.75V7.19995H4H3.25V16.8H4ZM7.2002 20V19.25C6.62779 19.25 6.24345 19.2494 5.94746 19.2252C5.66018 19.2018 5.52282 19.1599 5.43229 19.1137L5.0918 19.782L4.7513 20.4502C5.0886 20.6221 5.44538 20.6892 5.82532 20.7202C6.19655 20.7506 6.6525 20.75 7.2002 20.75V20ZM4 16.8H3.25C3.25 17.3476 3.24942 17.8035 3.27974 18.1747C3.31078 18.5546 3.37788 18.9112 3.54973 19.2485L4.21799 18.908L4.88624 18.5675C4.8401 18.477 4.79822 18.3397 4.77476 18.0525C4.75058 17.7566 4.75 17.3724 4.75 16.8H4ZM5.0918 19.782L5.43229 19.1137C5.1972 18.9939 5.00614 18.8029 4.88624 18.5675L4.21799 18.908L3.54973 19.2485C3.81333 19.7659 4.23374 20.1865 4.7513 20.4502L5.0918 19.782ZM20 16.8H19.25C19.25 17.3725 19.2495 17.7567 19.2253 18.0526C19.2019 18.3398 19.1601 18.4771 19.114 18.5675L19.7822 18.908L20.4505 19.2485C20.6224 18.9112 20.6894 18.5544 20.7204 18.1745C20.7506 17.8034 20.75 17.3476 20.75 16.8H20ZM16.8002 20V20.75C17.3479 20.75 17.8037 20.7506 18.1747 20.7202C18.5546 20.6892 18.9111 20.6221 19.2483 20.4502L18.9078 19.782L18.5673 19.1137C18.4767 19.1599 18.3394 19.2018 18.0525 19.2252C17.7567 19.2494 17.3726 19.25 16.8002 19.25V20ZM19.7822 18.908L19.114 18.5675C18.9943 18.8024 18.8029 18.9937 18.5673 19.1137L18.9078 19.782L19.2483 20.4502C19.7653 20.1868 20.1866 19.7664 20.4505 19.2485L19.7822 18.908ZM16.8002 4V4.75C17.3726 4.75 17.7567 4.75058 18.0525 4.77476C18.3395 4.79821 18.4767 4.84008 18.5673 4.88624L18.9078 4.21799L19.2483 3.54973C18.9111 3.37791 18.5545 3.31078 18.1747 3.27974C17.8036 3.24942 17.3479 3.25 16.8002 3.25V4ZM20 7.19995H20.75C20.75 6.65235 20.7506 6.1965 20.7204 5.82543C20.6894 5.4456 20.6224 5.08889 20.4505 4.75155L19.7822 5.09204L19.114 5.43253C19.1601 5.52302 19.2019 5.66021 19.2253 5.94735C19.2495 6.24326 19.25 6.62745 19.25 7.19995H20ZM18.9078 4.21799L18.5673 4.88624C18.8028 5.00624 18.9943 5.19764 19.114 5.43253L19.7822 5.09204L20.4505 4.75155C20.1867 4.2338 19.7654 3.81323 19.2483 3.54973L18.9078 4.21799ZM7.2002 4V3.25C6.65251 3.25 6.19656 3.24942 5.82534 3.27974C5.44541 3.31077 5.08861 3.37787 4.7513 3.54973L5.0918 4.21799L5.43229 4.88624C5.52281 4.84012 5.66016 4.79822 5.94745 4.77476C6.24344 4.75058 6.62777 4.75 7.2002 4.75V4ZM4 7.19995H4.75C4.75 6.62752 4.75058 6.24333 4.77476 5.94747C4.79822 5.66037 4.84009 5.5231 4.88624 5.43253L4.21799 5.09204L3.54973 4.75155C3.37789 5.0888 3.31078 5.44544 3.27974 5.82531C3.24942 6.19643 3.25 6.65228 3.25 7.19995H4ZM5.0918 4.21799L4.7513 3.54973C4.23366 3.81348 3.81329 4.2343 3.54973 4.75155L4.21799 5.09204L4.88624 5.43253C5.00618 5.19714 5.19728 5.00599 5.43229 4.88624L5.0918 4.21799ZM15 12L14.4697 11.4697L10.4697 15.4697L11 16L11.5303 16.5303L15.5303 12.5303L15 12ZM11 16L11.5303 15.4697L9.53033 13.4697L9 14L8.46967 14.5303L10.4697 16.5303L11 16ZM16 2H15.25V4H16H16.75V2H16ZM8 2H7.25V4H8H8.75V2H8Z" fill="#161616"/>
</svg>
