<svg width="37" height="36" viewBox="0 0 37 36" fill="none" xmlns="http://www.w3.org/2000/svg">
<path d="M33.9726 24.3236C34.5903 21.944 33.4664 19.3358 31.094 18.2296L27.2704 16.4466C27.0492 16.3434 26.8218 16.2691 26.5927 16.2203C27.2947 15.6394 27.7428 14.7619 27.7428 13.7817V9.56285C27.7428 6.98527 25.8835 4.83518 23.4359 4.37955C22.9902 1.93008 20.8534 0 18.2503 0C15.6493 0 13.5108 1.92818 13.0646 4.37955C10.6171 4.83511 8.75772 6.9852 8.75772 9.56285V13.7817C8.75772 14.7619 9.20575 15.6394 9.90782 16.2203C9.6786 16.2691 9.45135 16.3434 9.23008 16.4465L5.40649 18.2295C3.03365 19.336 1.9102 21.9443 2.52782 24.3236C0.466331 25.7791 -0.340364 28.5174 0.744768 30.8444C1.83096 33.1736 4.46627 34.4102 6.90815 33.7901C8.35525 35.8199 11.0932 36.5958 13.43 35.5061L17.2536 33.7231C17.642 33.542 17.977 33.2856 18.2503 32.9785C18.5236 33.2856 18.8586 33.542 19.247 33.7231L23.0706 35.5061C25.4084 36.5963 28.1459 35.8189 29.5924 33.7901C32.0072 34.4034 34.6574 33.1999 35.7557 30.8444C36.8409 28.5175 36.0342 25.7791 33.9726 24.3236ZM26.379 18.3585L30.2025 20.1414C31.4942 20.7437 32.1884 22.1127 31.9976 23.4559C29.6816 22.9613 27.2016 24.0878 26.1288 26.382L27.9094 22.5635C28.1556 22.0356 27.9272 21.408 27.3993 21.1618L25.4875 20.2703C24.9605 20.0246 24.7316 19.3958 24.9774 18.8686C25.2236 18.3405 25.8507 18.112 26.379 18.3585ZM18.2503 2.10945C19.9655 2.10945 21.4145 3.59065 21.4145 5.34396C21.4145 7.0887 19.995 8.50816 18.2503 8.50816C16.5055 8.50816 15.0861 7.0887 15.0861 5.34396C15.0861 3.59065 16.5351 2.10945 18.2503 2.10945ZM10.8672 9.56285C10.8672 8.13713 11.8153 6.92909 13.1139 6.53484C13.6554 8.87077 15.752 10.6176 18.2503 10.6176C20.7487 10.6176 22.8452 8.87077 23.3867 6.53484C24.6854 6.92909 25.6334 8.1372 25.6334 9.56285V13.7817C25.6334 14.3633 25.1603 14.8365 24.5787 14.8365C23.9972 14.8365 23.524 14.3634 23.524 13.7817V11.6723C23.524 11.0898 23.0518 10.6175 22.4693 10.6175H18.2503H14.0314C13.4489 10.6175 12.9767 11.0898 12.9767 11.6723V13.7817C12.9767 14.3633 12.5035 14.8365 11.9219 14.8365C11.3403 14.8365 10.8672 14.3634 10.8672 13.7817L10.8672 9.56285ZM6.29798 20.1414L10.1216 18.3584C10.6499 18.1121 11.2769 18.3402 11.5233 18.8685C11.7696 19.3968 11.5415 20.0239 11.0131 20.2702L9.10134 21.1617C8.57343 21.4078 8.34506 22.0354 8.59122 22.5634L10.3727 26.3838C9.30067 24.0886 6.82005 22.961 4.50304 23.4558C4.31207 22.1127 5.00634 20.7437 6.29798 20.1414ZM6.93178 31.5537C5.34764 32.2924 3.39703 31.5411 2.65649 29.9529C1.92616 28.3865 2.64426 26.5001 4.25737 25.748C5.8451 25.0076 7.72476 25.6968 8.46227 27.2785C9.20174 28.8642 8.50087 30.822 6.93178 31.5537ZM16.3622 31.8113L12.5386 33.5943C11.246 34.197 9.74997 33.8479 8.84392 32.8369C9.61666 32.2294 10.2083 31.4105 10.5523 30.4491C11.0324 29.1071 10.9696 27.6656 10.3755 26.3899L12.1572 30.2107C12.4031 30.7381 13.0308 30.967 13.5589 30.7208L15.4707 29.8293C15.999 29.583 16.626 29.8111 16.8723 30.3394C17.1241 30.8794 16.8857 31.5672 16.3622 31.8113ZM18.2503 28.6472C17.3604 27.6735 15.8859 27.308 14.579 27.9174L13.6231 28.3631L10.9487 22.6278L11.9046 22.182C13.4858 21.4447 14.1723 19.5584 13.435 17.9771C13.2297 17.5368 12.9351 17.1661 12.5831 16.8759C14.0115 16.571 15.0861 15.2997 15.0861 13.7817V12.727H21.4145V13.7817C21.4145 15.2997 22.4892 16.571 23.9175 16.8759C23.5654 17.166 23.2709 17.5367 23.0655 17.9771C22.3282 19.5584 23.0148 21.4447 24.596 22.182L25.552 22.6278L22.8775 28.3631L21.9216 27.9174C20.6149 27.3083 19.1403 27.6732 18.2503 28.6472ZM23.9621 33.5944L20.1385 31.8114C19.615 31.5673 19.3766 30.8795 19.6284 30.3394C19.8742 29.8123 20.503 29.5835 21.0301 29.8293L22.9419 30.7208C23.4693 30.9667 24.0974 30.7385 24.3435 30.2107L26.1245 26.3915C25.5312 27.667 25.4685 29.1077 25.9484 30.4491C26.2924 31.4105 26.884 32.2294 27.6568 32.8369C26.7507 33.848 25.2547 34.1971 23.9621 33.5944ZM33.844 29.9529C33.1039 31.5399 31.1537 32.2929 29.5687 31.5537C27.9996 30.8221 27.2988 28.8643 28.0382 27.2784C28.7773 25.6932 30.658 25.0089 32.2431 25.7479C33.8563 26.5001 34.5745 28.3865 33.844 29.9529Z" fill="#212529"/>
</svg>
