<svg width="37" height="32" viewBox="0 0 37 32" fill="none" xmlns="http://www.w3.org/2000/svg">
<path d="M29.0601 8.01196C28.9809 7.41194 28.4697 6.96384 27.8645 6.96384H24.6181L25.5569 3.86251L34.4626 2.37835L34.0664 0L24.4212 1.60754C23.969 1.68309 23.5985 2.00862 23.4659 2.44747L22.0995 6.96384H15.4829C14.9146 3.92681 12.2489 1.61999 9.0495 1.61999C5.43817 1.61999 2.5 4.55817 2.5 8.16949C2.5 11.0811 4.41056 13.5523 7.0433 14.4019C7.10921 20.2308 11.5629 25.0245 17.2511 25.6241V29.5887H11.2229V32H25.2671V29.5887H19.6629V25.6241C25.3929 25.0201 29.8739 20.1593 29.8739 14.2717C29.8739 14.2191 29.8699 14.1664 29.8639 14.1142L29.0601 8.01196ZM21.3701 9.37515L20.473 12.3386C19.2815 12.4922 18.5175 12.8539 17.827 13.1838C17.0241 13.5668 16.3899 13.8698 14.9793 13.8698C13.5687 13.8698 12.9345 13.5672 12.1323 13.1838C11.4873 12.8756 10.7736 12.5412 9.71261 12.3732L10.1073 9.37515H21.3701ZM7.8543 8.01196L7.33788 11.9323C5.90838 11.2797 4.9117 9.84013 4.9117 8.16949C4.9117 5.8876 6.76801 4.0313 9.0499 4.0313C10.9118 4.0313 12.4904 5.26829 13.0077 6.96384H9.0499C8.44426 6.96384 7.93347 7.41194 7.8543 8.01196ZM18.4568 23.2767C13.6591 23.2767 9.72748 19.507 9.46625 14.7745C10.1109 14.8942 10.5674 15.1084 11.0927 15.3592C11.9969 15.7912 13.0221 16.2807 14.9789 16.2807C16.9357 16.2807 17.9609 15.7912 18.8659 15.3592C19.1392 15.2286 19.394 15.1088 19.6665 15.0055L18.6429 18.3882L20.9509 19.0867L22.2799 14.6933C23.3083 14.7648 23.875 15.0317 24.561 15.3588C25.2595 15.6924 26.0359 16.0577 27.2516 16.208C26.3631 20.2461 22.7578 23.2767 18.4568 23.2767ZM25.5991 13.1834C24.9163 12.8567 24.1619 12.4986 22.9909 12.3423L23.8887 9.37474H26.8071L27.3887 13.7943C26.6556 13.6825 26.1677 13.4543 25.5991 13.1834Z" fill="#212529"/>
</svg>
