<svg width="37" height="34" viewBox="0 0 37 34" fill="none" xmlns="http://www.w3.org/2000/svg">
<mask id="mask0_49_6345" style="mask-type:luminance" maskUnits="userSpaceOnUse" x="1" y="0" width="35" height="34">
<path d="M32.0482 31.1362C32.0286 31.1533 32.0111 31.1684 31.9921 31.1848V25.9837H32.6434C33.1599 25.9837 33.5792 25.5681 33.5792 25.0553V19.2627C33.5792 18.7499 33.1599 18.3342 32.6434 18.3342H29.6289C29.1124 18.3342 28.6931 18.7499 28.6931 19.2627V20.6951H27.2218V19.2627C27.2218 18.7499 26.8032 18.3342 26.286 18.3342H24.9182L24.5642 15.5051H25.863C26.3796 15.5051 26.7988 15.0895 26.7988 14.5766V9.74077C26.7988 9.22793 26.3796 8.81228 25.863 8.81228H19.4361V6.59443L23.6062 4.43384C23.9091 4.27724 24.1016 3.96929 24.1088 3.6307C24.1159 3.29211 23.9369 2.97673 23.6415 2.80713L18.9688 0.124727C18.68 -0.0411627 18.3225 -0.0417814 18.0327 0.124109C17.743 0.289689 17.5645 0.596399 17.5645 0.928488V8.81259H10.9819C10.4651 8.81259 10.0462 9.22824 10.0462 9.74108V14.577C10.0462 15.0898 10.4651 15.5054 10.9819 15.5054H12.2805L11.9265 18.3345H10.5587C10.0418 18.3345 9.62288 18.7502 9.62288 19.263V20.6954H8.15152V19.263C8.15152 18.7502 7.73261 18.3345 7.21574 18.3345H4.2016C3.68473 18.3345 3.26582 18.7502 3.26582 19.263V25.0559C3.26582 25.5687 3.68473 25.9844 4.2016 25.9844H4.8529V31.0511C4.11956 30.4129 3.19376 29.6671 1.5 29.6671V31.524C2.56305 31.524 3.04591 31.9459 3.71437 32.5302C4.46361 33.1851 5.39628 34 7.16615 34C8.93571 34 9.86806 33.1851 10.617 32.5302C11.2851 31.9459 11.7677 31.524 12.8307 31.524C13.8938 31.524 14.377 31.9459 15.0457 32.5302C15.7947 33.1851 16.7276 34 18.4975 34C20.268 34 21.2 33.1851 21.9493 32.5302C22.6184 31.9462 23.1012 31.524 24.1646 31.524C25.2283 31.524 25.7114 31.9462 26.3805 32.5305C27.1298 33.1851 28.0627 34 29.8323 34C31.6028 34 32.5354 33.1851 33.2847 32.5305C33.9532 31.9462 34.436 31.524 35.5 31.524V29.6671C33.7304 29.6667 32.7975 30.4816 32.0482 31.1362ZM19.4361 2.53787L21.2322 3.5688L19.4361 4.49945V2.53787ZM11.9177 13.6482V10.6693H24.9276V13.6482H23.5055C23.2369 13.6482 22.9814 13.7624 22.8043 13.962C22.6265 14.1616 22.5435 14.4268 22.5766 14.6908L23.0367 18.3677C22.6346 18.4717 22.3367 18.831 22.3367 19.2627V20.6951H20.866V19.2627C20.866 18.7499 20.4467 18.3342 19.9302 18.3342H16.9151C16.3982 18.3342 15.9793 18.7499 15.9793 19.2627V20.6951H14.5083V19.2627C14.5083 18.831 14.2104 18.4717 13.8086 18.3677L14.2684 14.6908C14.3012 14.4265 14.2185 14.1613 14.041 13.962C13.8635 13.7627 13.6081 13.6482 13.3398 13.6482H11.9177ZM31.7076 24.1268H31.0563C30.5391 24.1268 30.1205 24.5424 30.1205 25.0553V32.1279C30.0279 32.1353 29.9352 32.1427 29.8323 32.1427C28.7686 32.1427 28.2854 31.7206 27.617 31.1362C26.8677 30.4816 25.9348 29.6667 24.1646 29.6667C22.3947 29.6667 21.4621 30.4816 20.7128 31.1365C20.0443 31.7206 19.5615 32.1427 18.4975 32.1427C17.4341 32.1427 16.951 31.7206 16.2822 31.1362C15.5333 30.4816 14.6003 29.6667 12.8307 29.6667C11.0612 29.6667 10.1288 30.4816 9.37989 31.1365C8.71174 31.7209 8.22919 32.1427 7.16615 32.1427C7.00519 32.1427 6.86108 32.13 6.72446 32.1118V25.0553C6.72446 24.5424 6.30554 24.1268 5.78868 24.1268H5.13738V20.1912H6.27996V21.6236C6.27996 22.1364 6.69888 22.552 7.21574 22.552H10.5587C11.0755 22.552 11.4944 22.1364 11.4944 21.6236V20.1912H12.6367V21.6236C12.6367 22.1364 13.0556 22.552 13.5725 22.552H16.9151C17.432 22.552 17.8509 22.1364 17.8509 21.6236V20.1912H18.9941V21.6236C18.9941 22.1364 19.4127 22.552 19.9299 22.552H23.2722C23.7893 22.552 24.2079 22.1364 24.2079 21.6236V20.1912H25.3502V21.6236C25.3502 22.1364 25.7694 22.552 26.286 22.552H29.6289C30.1461 22.552 30.5647 22.1364 30.5647 21.6236V20.1912H31.7076V24.1268Z" fill="white"/>
</mask>
<g mask="url(#mask0_49_6345)">
<path d="M32.0482 31.1362C32.0286 31.1533 32.0111 31.1684 31.9921 31.1848V25.9837H32.6434C33.1599 25.9837 33.5792 25.5681 33.5792 25.0553V19.2627C33.5792 18.7499 33.1599 18.3342 32.6434 18.3342H29.6289C29.1124 18.3342 28.6931 18.7499 28.6931 19.2627V20.6951H27.2218V19.2627C27.2218 18.7499 26.8032 18.3342 26.286 18.3342H24.9182L24.5642 15.5051H25.863C26.3796 15.5051 26.7988 15.0895 26.7988 14.5766V9.74077C26.7988 9.22793 26.3796 8.81228 25.863 8.81228H19.4361V6.59443L23.6062 4.43384C23.9091 4.27724 24.1016 3.96929 24.1088 3.6307C24.1159 3.29211 23.9369 2.97673 23.6415 2.80713L18.9688 0.124727C18.68 -0.0411627 18.3225 -0.0417814 18.0327 0.124109C17.743 0.289689 17.5645 0.596399 17.5645 0.928488V8.81259H10.9819C10.4651 8.81259 10.0462 9.22824 10.0462 9.74108V14.577C10.0462 15.0898 10.4651 15.5054 10.9819 15.5054H12.2805L11.9265 18.3345H10.5587C10.0418 18.3345 9.62288 18.7502 9.62288 19.263V20.6954H8.15152V19.263C8.15152 18.7502 7.73261 18.3345 7.21574 18.3345H4.2016C3.68473 18.3345 3.26582 18.7502 3.26582 19.263V25.0559C3.26582 25.5687 3.68473 25.9844 4.2016 25.9844H4.8529V31.0511C4.11956 30.4129 3.19376 29.6671 1.5 29.6671V31.524C2.56305 31.524 3.04591 31.9459 3.71437 32.5302C4.46361 33.1851 5.39628 34 7.16615 34C8.93571 34 9.86806 33.1851 10.617 32.5302C11.2851 31.9459 11.7677 31.524 12.8307 31.524C13.8938 31.524 14.377 31.9459 15.0457 32.5302C15.7947 33.1851 16.7276 34 18.4975 34C20.268 34 21.2 33.1851 21.9493 32.5302C22.6184 31.9462 23.1012 31.524 24.1646 31.524C25.2283 31.524 25.7114 31.9462 26.3805 32.5305C27.1298 33.1851 28.0627 34 29.8323 34C31.6028 34 32.5354 33.1851 33.2847 32.5305C33.9532 31.9462 34.436 31.524 35.5 31.524V29.6671C33.7304 29.6667 32.7975 30.4816 32.0482 31.1362ZM19.4361 2.53787L21.2322 3.5688L19.4361 4.49945V2.53787ZM11.9177 13.6482V10.6693H24.9276V13.6482H23.5055C23.2369 13.6482 22.9814 13.7624 22.8043 13.962C22.6265 14.1616 22.5435 14.4268 22.5766 14.6908L23.0367 18.3677C22.6346 18.4717 22.3367 18.831 22.3367 19.2627V20.6951H20.866V19.2627C20.866 18.7499 20.4467 18.3342 19.9302 18.3342H16.9151C16.3982 18.3342 15.9793 18.7499 15.9793 19.2627V20.6951H14.5083V19.2627C14.5083 18.831 14.2104 18.4717 13.8086 18.3677L14.2684 14.6908C14.3012 14.4265 14.2185 14.1613 14.041 13.962C13.8635 13.7627 13.6081 13.6482 13.3398 13.6482H11.9177ZM31.7076 24.1268H31.0563C30.5391 24.1268 30.1205 24.5424 30.1205 25.0553V32.1279C30.0279 32.1353 29.9352 32.1427 29.8323 32.1427C28.7686 32.1427 28.2854 31.7206 27.617 31.1362C26.8677 30.4816 25.9348 29.6667 24.1646 29.6667C22.3947 29.6667 21.4621 30.4816 20.7128 31.1365C20.0443 31.7206 19.5615 32.1427 18.4975 32.1427C17.4341 32.1427 16.951 31.7206 16.2822 31.1362C15.5333 30.4816 14.6003 29.6667 12.8307 29.6667C11.0612 29.6667 10.1288 30.4816 9.37989 31.1365C8.71174 31.7209 8.22919 32.1427 7.16615 32.1427C7.00519 32.1427 6.86108 32.13 6.72446 32.1118V25.0553C6.72446 24.5424 6.30554 24.1268 5.78868 24.1268H5.13738V20.1912H6.27996V21.6236C6.27996 22.1364 6.69888 22.552 7.21574 22.552H10.5587C11.0755 22.552 11.4944 22.1364 11.4944 21.6236V20.1912H12.6367V21.6236C12.6367 22.1364 13.0556 22.552 13.5725 22.552H16.9151C17.432 22.552 17.8509 22.1364 17.8509 21.6236V20.1912H18.9941V21.6236C18.9941 22.1364 19.4127 22.552 19.9299 22.552H23.2722C23.7893 22.552 24.2079 22.1364 24.2079 21.6236V20.1912H25.3502V21.6236C25.3502 22.1364 25.7694 22.552 26.286 22.552H29.6289C30.1461 22.552 30.5647 22.1364 30.5647 21.6236V20.1912H31.7076V24.1268Z" fill="#212529"/>
</g>
</svg>
