<svg width="51" height="41" viewBox="0 0 51 41" fill="none" xmlns="http://www.w3.org/2000/svg">
<path d="M50.6989 39.1759L47.8697 31.0147C47.8595 30.9775 47.8467 30.9412 47.8316 30.9058L45.998 25.6173L41.1992 11.8466C41.0367 11.3718 40.5201 11.1187 40.0453 11.2811C39.7796 11.3721 39.5709 11.5808 39.4799 11.8466L36.2807 21.0525L36.0195 20.3016L29.4524 1.42734C29.2899 0.952625 28.7733 0.699354 28.2986 0.861899C28.0329 0.952897 27.8241 1.16155 27.7331 1.42734L21.1715 20.3016L20.2574 22.935V22.9948L19.4413 25.3453L18.8972 23.713L13.4563 7.99444C13.2938 7.51972 12.7772 7.26659 12.3025 7.429C12.0368 7.52 11.828 7.72865 11.737 7.99444L6.17649 23.7239L0.800936 39.1759C0.63567 39.6497 0.885813 40.1678 1.35957 40.333C1.45629 40.3668 1.55803 40.3839 1.66059 40.3838H1.68779H41.7651H49.8012C50.3026 40.406 50.7269 40.0175 50.749 39.5161C50.7541 39.4006 50.7371 39.2851 50.6989 39.1759ZM40.3396 14.9152L44.2624 26.243L44.6378 27.2496L41.9555 24.2408C41.6213 23.8665 41.0469 23.834 40.6725 24.1682C40.577 24.2534 40.5006 24.3579 40.4484 24.4748L38.7835 28.2126L37.9184 25.7207L37.8857 25.6337L37.2437 23.8164L40.3396 14.9152ZM28.5982 4.49597L34.3002 20.9001L34.4145 21.2211L31.2044 17.1405C30.8907 16.7488 30.3189 16.6854 29.9271 16.999C29.7612 17.1318 29.6472 17.3185 29.6048 17.5268L28.5492 22.5705L27.1999 16.6291C27.102 16.1369 26.6237 15.8173 26.1315 15.9151C25.922 15.9567 25.734 16.0708 25.6003 16.2373L23.6797 18.615L28.5982 4.49597ZM12.5258 11.0685L17.1342 24.317L17.3464 24.9209L15.4693 22.9459C15.1242 22.5815 14.5491 22.5658 14.1849 22.9109C14.0486 23.04 13.9557 23.208 13.9187 23.392L13.1243 27.2931L11.7804 21.3572C11.6825 20.865 11.2042 20.5454 10.712 20.6432C10.5025 20.6848 10.3145 20.7989 10.1808 20.9654L8.2602 23.3431L12.5258 11.0685ZM14.8166 38.5665H2.96639L6.48662 28.4411L10.4149 23.5716L12.2866 31.8199C12.3937 32.3101 12.8781 32.6206 13.3683 32.5135C13.7329 32.4338 14.0116 32.1393 14.0712 31.7709L15.3552 25.465L18.2987 28.5608L17.7274 30.1931L15.464 36.7112L14.8166 38.5665ZM16.7425 38.5665L21.9113 23.713L25.8396 18.8435L27.7112 27.0918C27.8184 27.582 28.3028 27.8926 28.793 27.7854C29.1575 27.7057 29.4362 27.4112 29.4958 27.0428L30.9703 19.8011L36.2316 26.4443L40.4537 38.5665H16.7425ZM42.369 38.5611L39.6486 30.7317L41.542 26.5151L46.1939 31.7492L48.5607 38.5611H42.369Z" fill="#212529"/>
</svg>
