<svg width="36" height="36" viewBox="0 0 36 36" fill="none" xmlns="http://www.w3.org/2000/svg">
<path d="M17.6982 21.5893C16.691 21.5893 15.6765 21.6303 14.6715 21.7087C13.8126 18.1934 14.1206 14.7107 14.4267 12.765C15.3073 13.3662 16.4712 14.294 17.353 15.4853C18.8937 17.5671 19.461 20.4832 19.4736 20.5467C19.5451 20.9334 19.8109 21.2554 20.177 21.3995C20.312 21.4532 20.4542 21.479 20.5953 21.479C20.836 21.479 21.0744 21.403 21.2733 21.255C22.5106 20.3398 23.4307 18.7162 23.7346 16.9127C24.0658 14.9495 23.6559 13.0689 22.5805 11.616C21.3204 9.91362 19.1686 8.89762 16.8245 8.89762C16.5241 8.89762 16.2301 8.91891 15.9412 8.95238C16.1062 8.36947 16.21 7.75424 16.2339 7.12418C16.3089 5.13514 15.6602 3.32254 14.4073 2.01984C13.1536 0.717513 11.3653 0 9.37289 0C7.54507 0 5.79293 0.636522 4.68529 1.70272C4.39973 1.97801 4.27729 2.38144 4.36208 2.76929C4.44726 3.15713 4.7275 3.47235 5.10241 3.60202C5.12941 3.61152 7.82759 4.56212 9.72081 6.53024C10.2197 7.04851 10.6497 7.64017 11.0148 8.22574C10.4193 8.08315 9.79876 7.99911 9.1668 7.99911C7.51428 7.99911 6.02031 8.50939 4.84613 9.47444C3.45065 10.622 2.59549 12.3468 2.43845 14.3313C2.29434 16.1545 2.79169 17.9527 3.76891 19.1413C3.98717 19.4067 4.31151 19.5577 4.64993 19.5577C4.70202 19.5577 4.75449 19.5539 4.80697 19.547C5.19975 19.4923 5.53627 19.2379 5.69521 18.874C5.70661 18.8477 6.86597 16.2321 8.97554 14.4978C9.33106 14.2058 9.71473 13.9445 10.1048 13.7099C8.83751 15.937 7.66333 19.0903 7.88615 22.9083C3.88754 24.1015 1 26.0849 1 28.7941C1 33.4748 9.60332 36 17.6986 36C25.7932 36 34.3969 33.4744 34.3969 28.7941C34.3961 24.1148 25.7924 21.5893 17.6982 21.5893ZM16.8241 11.1791C18.4485 11.1791 19.9147 11.8502 20.7463 12.9738C21.6946 14.2548 21.6159 15.7541 21.4843 16.5336C21.4056 17.0009 21.2691 17.4515 21.0869 17.8614C20.6888 16.7226 20.0786 15.3332 19.1861 14.1278C18.2758 12.8985 17.1469 11.9179 16.1902 11.2159C16.3967 11.1916 16.6085 11.1791 16.8241 11.1791ZM8.02076 2.44723C8.44853 2.33962 8.90748 2.28144 9.37213 2.28144C10.1638 2.28144 11.6566 2.45293 12.7627 3.60202C13.8681 4.75072 13.9833 6.24811 13.9536 7.03825C13.9358 7.51127 13.8578 7.9763 13.7301 8.40635C13.189 7.32837 12.4045 6.02909 11.3646 4.94845C10.3045 3.84689 9.05957 3.01987 8.02076 2.44723ZM7.52644 12.7361C6.34542 13.7073 5.42372 14.8834 4.7716 15.8746C4.69784 15.4389 4.67578 14.9761 4.71267 14.5115C4.77502 13.7232 5.06325 12.2494 6.29484 11.2372C7.25609 10.4471 8.38693 10.2809 9.16642 10.2809C9.85541 10.2809 10.5459 10.4148 11.1577 10.649C10.0406 11.1038 8.68427 11.7844 7.52644 12.7361ZM17.6982 33.7193C8.76564 33.7193 3.28106 30.8512 3.28106 28.7948C3.28106 27.6321 5.04119 26.2111 8.18122 25.1947C8.45879 26.5811 8.92307 28.0363 9.63754 29.5549L11.7019 28.5834C8.97516 22.7882 10.2596 18.1025 11.8555 15.156C11.6 19.3078 12.157 25.4422 16.6176 29.8781L18.226 28.2606C16.9275 26.9693 16.0202 25.4837 15.3913 23.9407C16.1324 23.8973 16.8994 23.8711 17.6979 23.8711C26.6301 23.8711 32.1147 26.7389 32.1147 28.7948C32.1147 30.8512 26.6305 33.7193 17.6982 33.7193Z" fill="#212529"/>
</svg>
