<svg width="37" height="26" viewBox="0 0 37 26" fill="none" xmlns="http://www.w3.org/2000/svg">
<path d="M34.2215 11.033C34.3589 10.9631 34.4775 10.8619 34.5675 10.7378C34.6575 10.6137 34.7164 10.4702 34.7393 10.3192C34.7621 10.1682 34.7483 10.0141 34.699 9.86938C34.6497 9.7247 34.5662 9.59367 34.4555 9.48711C34.4193 9.35371 34.3686 9.22454 34.3044 9.10185L29.9647 1.02095C29.859 0.827347 29.7205 0.653064 29.5552 0.505658C29.4569 0.392569 29.3334 0.30355 29.1943 0.245605C28.9053 0.0857119 28.5797 0.00118648 28.2484 0H9.25647C9.14192 0.00131458 9.0277 0.0125949 8.91515 0.0337104C8.71152 -0.0193001 8.49599 -0.00578526 8.30078 0.0722358C8.15859 0.130323 8.03234 0.220818 7.93234 0.336323C7.83234 0.451828 7.76143 0.589064 7.72541 0.736816C7.65366 0.825795 7.59002 0.920877 7.53525 1.02095L3.19563 9.09703C3.13141 9.21973 3.08073 9.34889 3.04448 9.48229C2.93379 9.58886 2.85034 9.71988 2.80101 9.86456C2.75167 10.0092 2.73786 10.1634 2.76072 10.3144C2.78358 10.4654 2.84245 10.6089 2.93248 10.733C3.02251 10.8571 3.14112 10.9582 3.27852 11.0282C3.35371 11.1481 3.442 11.2595 3.54183 11.3605L17.9893 25.673L18.0186 25.7019C18.0604 25.7445 18.1061 25.7832 18.1551 25.8175L18.2234 25.8608C18.2761 25.8916 18.3316 25.9174 18.3892 25.9379L18.4623 25.9619C18.5418 25.9833 18.6237 25.9946 18.7061 25.9956H18.75C18.8116 26.0015 18.8737 26.0015 18.9353 25.9956L19.0572 25.9571H19.1059C19.1533 25.9367 19.199 25.9125 19.2425 25.8849H19.2766C19.3218 25.8532 19.3643 25.8177 19.4034 25.7789L19.4668 25.7211L33.963 11.3605C34.0609 11.2608 34.1475 11.151 34.2215 11.033ZM23.548 11.1437L18.75 22.5331L13.9813 11.1437H23.548ZM14.7322 9.21743L18.7549 2.9569L22.7776 9.21743H14.7322ZM20.4078 1.9215H27.4341L24.6451 8.5384L20.4078 1.9215ZM12.8988 8.49987L10.1293 1.9215H17.0922L12.8988 8.49987ZM15.9707 20.9631L6.07246 11.1437H11.8749L15.9707 20.9631ZM25.6593 11.1437H31.4275L21.5293 20.9631L25.6593 11.1437ZM32.1589 9.21743H26.4735L28.9896 3.28437L32.1589 9.21743ZM8.56408 3.21695L11.0703 9.21261H5.34106L8.56408 3.21695Z" fill="#212529"/>
</svg>
