<svg width="37" height="32" viewBox="0 0 37 32" fill="none" xmlns="http://www.w3.org/2000/svg">
<path d="M33.7233 5.62979C33.6398 5.24148 33.3652 4.9243 32.9955 4.78437L30.0798 3.68823L28.9905 0.755491C28.8526 0.384671 28.5374 0.109471 28.1515 0.0255115C27.7644 -0.0561156 27.3646 0.0604947 27.0865 0.341525L22.0373 5.42223C21.9956 5.46421 21.977 5.52135 21.9423 5.56799C20.4462 5.891 18.891 6.66762 17.3022 7.87454C14.6055 5.8187 12.0329 5.01176 9.64213 5.51318C6.15164 6.23966 4.48636 9.47093 4.41683 9.6097C4.39597 9.64934 4.37858 9.69016 4.36236 9.73214C2.33204 15.2688 5.71707 19.9845 9.46019 23.2519L8.48095 24.2279L6.35097 22.3517C5.98824 22.0298 5.45864 21.9727 5.03334 22.2036C1.14304 24.3329 3.38081 30.694 3.47815 30.9645C3.54189 31.1383 3.64155 31.2875 3.76439 31.4076C3.91736 31.565 4.11552 31.6782 4.34266 31.7283C4.45739 31.7528 5.61972 32 7.06251 32C9.15309 32 11.8324 31.4823 12.7687 29.0194C12.9426 28.5635 12.8151 28.0469 12.4512 27.7262L10.2297 25.7684L11.2819 24.7177C14.0099 26.7525 16.4933 27.9595 16.7506 28.0819C16.8282 28.1192 16.9105 28.118 16.9916 28.1367C17.0229 28.1472 17.0577 28.1519 17.0901 28.1589C17.1423 28.167 17.1933 28.1938 17.2454 28.1938C17.2616 28.1938 17.2756 28.188 17.2918 28.1869C17.308 28.188 17.3219 28.1938 17.3381 28.1938C17.3903 28.1938 17.4413 28.167 17.4934 28.1589C17.5259 28.1519 17.5606 28.1472 17.5931 28.1367C17.673 28.1169 17.7553 28.1181 17.833 28.0819C18.4947 27.7659 33.9295 20.2807 30.2664 9.86624L33.4104 6.70261C33.6885 6.42158 33.8079 6.01694 33.7233 5.62979ZM5.47023 29.5582C5.10635 28.2358 4.73783 25.9409 5.57337 24.7643L10.1787 28.8212C9.12644 29.8101 6.82262 29.7483 5.47023 29.5582ZM17.2929 25.7427C14.901 24.495 3.80958 18.2214 6.50973 10.616C6.70789 10.265 7.93513 8.23836 10.1323 7.79058C11.9911 7.4046 14.1374 8.22204 16.5072 10.1986C16.732 10.3863 17.009 10.4621 17.279 10.454C17.2999 10.4551 17.3184 10.4679 17.3393 10.4679C17.6 10.4679 17.8619 10.3805 18.0786 10.1997C19.3766 9.11527 20.6142 8.39345 21.7766 8.0133L21.882 10.3175C21.7673 10.3735 21.656 10.4388 21.5622 10.5356L16.5721 15.6139H13.7387C13.0979 15.6139 12.5798 16.1352 12.5798 16.7801C12.5798 17.4249 13.0979 17.9462 13.7387 17.9462H20.8483C21.4892 17.9462 22.0072 17.4249 22.0072 16.7801C22.0072 16.1352 21.4892 15.6139 20.8483 15.6139H19.8297L23.2089 12.1751C23.2808 12.1028 23.319 12.0154 23.3677 11.9314L27.5349 12.0877C27.55 12.0888 27.5628 12.0888 27.5778 12.0888C27.8745 12.0888 28.1584 11.9687 28.374 11.7635C29.6557 18.8336 19.5608 24.5568 17.2929 25.7427ZM27.1154 9.73797L24.1708 9.62835L24.0375 6.7061L27.4503 3.27194L28.0947 5.0036C28.2129 5.31961 28.4597 5.56799 28.7749 5.68693L30.497 6.33528L27.1154 9.73797Z" fill="#212529"/>
</svg>
