<svg width="36" height="30" viewBox="0 0 36 30" fill="none" xmlns="http://www.w3.org/2000/svg">
<path d="M18 15.3285C16.8929 15.3285 15.7764 15.3765 14.6724 15.4682L13.8811 12.0531L21.6706 10.248C22.295 10.1032 22.6844 9.4792 22.54 8.8544C21.4499 4.14907 17.3187 0.862488 12.4949 0.862488C11.7125 0.862488 10.9259 0.952685 10.1571 1.13076C4.61485 2.41597 1.15097 7.97024 2.43502 13.5137C2.5047 13.8137 2.69052 14.0738 2.95182 14.2372C3.13763 14.353 3.35093 14.413 3.56655 14.413C3.65442 14.413 3.74191 14.4033 3.82901 14.3832L11.6185 12.578L12.3497 15.733C6.1962 16.628 1 18.9948 1 22.6639C1 27.4292 9.75917 30 18.0004 30C26.2416 30 35 27.4288 35 22.6639C34.9996 17.8997 26.2412 15.3285 18 15.3285ZM19.9344 8.26599L16.7094 9.01351C16.1012 6.85459 15.2109 4.82806 14.1506 3.36091C16.7756 3.91022 18.9531 5.74048 19.9344 8.26599ZM4.51768 11.8387C4.29277 9.12422 5.48275 6.52941 7.5507 4.89967C7.24604 6.68193 7.33856 8.88886 7.74116 11.0915L4.51768 11.8387ZM10.0073 10.5666C9.21799 6.18721 10.0801 3.5351 10.6813 3.39458C10.6809 3.39458 10.6813 3.3942 10.6813 3.39458C11.2855 3.25212 13.2261 5.25736 14.444 9.53843L10.0073 10.5666ZM18 27.6777C8.90636 27.6777 3.32228 24.7577 3.32228 22.6642C3.32228 21 6.85506 18.8152 12.8719 17.9887L14.0015 22.8624L16.2646 22.3379L15.2012 17.7495C16.0931 17.6871 17.0253 17.6515 18 17.6515C27.0932 17.6515 32.6769 20.5711 32.6769 22.6642C32.6769 24.7577 27.0936 27.6777 18 27.6777Z" fill="#212529"/>
</svg>
