<svg width="40" height="26" viewBox="0 0 40 26" fill="none" xmlns="http://www.w3.org/2000/svg">
<path d="M39.2286 16.8733C39.195 16.7178 39.1304 16.5704 39.0384 16.4398C38.9465 16.3091 38.829 16.1978 38.693 16.1122C36.898 15.0544 34.9622 14.2477 32.9414 13.7152C33.8157 11.513 34.3353 9.1899 34.4812 6.8298C34.4862 6.6699 34.4586 6.51064 34.4 6.36141C34.3415 6.21218 34.2532 6.07599 34.1404 5.96089C34.0287 5.84547 33.8947 5.75316 33.7463 5.68937C33.5979 5.62557 33.438 5.59157 33.2761 5.58935C30.4834 5.64458 27.7241 6.1989 25.1326 7.22531C24.1 4.68922 22.6091 2.35841 20.7321 0.345888C20.4985 0.123993 20.1865 0 19.8618 0C19.5371 0 19.2251 0.123993 18.9914 0.345888C17.0925 2.37694 15.5904 4.73552 14.5606 7.30322C11.9165 6.22377 9.09022 5.64242 6.22838 5.58935C6.06646 5.59157 5.90662 5.62557 5.75822 5.68937C5.60982 5.75316 5.47583 5.84547 5.36412 5.96089C5.25128 6.07599 5.16299 6.21218 5.10446 6.36141C5.04592 6.51064 5.01832 6.6699 5.02328 6.8298C5.17915 9.18566 5.709 11.5029 6.59356 13.6972C4.573 14.236 2.63608 15.0424 0.835874 16.0943C0.694701 16.181 0.572482 16.2946 0.476347 16.4283C0.380211 16.5621 0.312082 16.7133 0.27593 16.8733C0.242464 17.0304 0.241381 17.1925 0.272746 17.3499C0.304111 17.5074 0.367285 17.6571 0.45852 17.7901C0.641111 18.0538 4.98676 24.304 11.8461 25.7063C12.8272 25.9051 13.8267 26.0035 14.8284 25.9999C16.2186 25.9938 17.6033 25.8289 18.9549 25.5085C19.0684 25.6225 19.2038 25.713 19.3533 25.7747C19.5027 25.8365 19.6632 25.8682 19.8253 25.8681C20.1387 25.8668 20.4395 25.7466 20.6652 25.5325C21.9589 25.8265 23.2815 25.9792 24.6091 25.9879C25.6348 25.9999 26.6589 25.9055 27.6645 25.7063C34.4934 24.304 38.839 18.0538 39.0216 17.7961C39.1178 17.6641 39.1858 17.5143 39.2214 17.3556C39.257 17.197 39.2594 17.0329 39.2286 16.8733ZM31.9249 8.05827C31.6084 10.2575 30.6042 14.7399 27.4028 17.7482C26.5937 18.4982 25.687 19.139 24.7065 19.6538C25.7245 17.554 26.2705 15.2627 26.3072 12.9362C26.2993 11.7849 26.1543 10.6385 25.8751 9.52045C27.8046 8.73343 29.8446 8.24038 31.9249 8.05827ZM19.874 3.02455C21.2738 4.76837 23.8727 8.57962 23.8727 12.9362C23.8727 17.2928 21.2738 21.098 19.8679 22.8418C18.468 21.098 15.8752 17.2868 15.8752 12.9362C15.8752 8.58561 18.4619 4.77437 19.8618 3.02455H19.874ZM13.8485 9.61633C13.5839 10.706 13.447 11.8219 13.4407 12.9422C13.48 15.3212 14.0471 17.663 15.1023 19.8036C14.0167 19.2625 13.0147 18.5725 12.126 17.7542C8.9368 14.7579 7.92647 10.2635 7.60998 8.06426C9.75493 8.25497 11.8561 8.7767 13.8363 9.61034L13.8485 9.61633ZM12.3756 23.3991C8.06646 22.5182 4.78591 19.2044 3.33736 17.5265C4.71679 16.8435 6.16786 16.311 7.66476 15.9384C8.4044 17.267 9.34195 18.4789 10.4462 19.534C12.3397 21.2394 14.6082 22.4904 17.0742 23.1894C17.129 23.2733 17.1838 23.3452 17.2386 23.4231C15.6233 23.6952 13.9713 23.6749 12.3634 23.3632L12.3756 23.3991ZM27.1532 23.3991C25.6075 23.6942 24.0211 23.7186 22.4668 23.4711C22.552 23.3632 22.6311 23.2493 22.7102 23.1295C25.0811 22.4163 27.2589 21.1875 29.0826 19.534C30.1869 18.4789 31.1244 17.267 31.8641 15.9384C33.3583 16.2999 34.8074 16.8224 36.1854 17.4965C34.7368 19.1984 31.4685 22.4763 27.1411 23.3632L27.1532 23.3991Z" fill="#212529"/>
</svg>
