<svg width="40" height="34" viewBox="0 0 40 34" fill="none" xmlns="http://www.w3.org/2000/svg">
<path d="M33.2934 30.9958C32.1374 30.9958 31.6122 30.5334 30.8851 29.8934C30.0708 29.1764 29.0568 28.2838 27.1337 28.2838C25.2095 28.2838 24.1965 29.1764 23.3822 29.8937C22.6551 30.5334 22.1303 30.9958 20.9746 30.9958C19.819 30.9958 19.2938 30.5334 18.5677 29.8937C17.7534 29.1764 16.7398 28.2838 14.8163 28.2838C12.8931 28.2838 11.8798 29.1764 11.0659 29.8937C10.3397 30.5338 9.81495 30.9958 8.65996 30.9958C7.50463 30.9958 6.97952 30.5338 6.25303 29.8937C5.43874 29.1764 4.42546 28.2838 2.50195 28.2838V30.3178C3.65727 30.3178 4.18239 30.7799 4.90888 31.4199C5.72317 32.1373 6.73645 33.0299 8.65996 33.0299C10.5831 33.0299 11.5964 32.1373 12.4107 31.4199C13.1368 30.7799 13.6616 30.3178 14.8166 30.3178C15.9723 30.3178 16.4971 30.7802 17.2235 31.4199C18.0378 32.1373 19.0515 33.0299 20.975 33.0299C22.8985 33.0299 23.9121 32.1373 24.7264 31.4199C25.4529 30.7802 25.9777 30.3178 27.134 30.3178C28.2903 30.3178 28.8151 30.7802 29.5416 31.4203C30.3559 32.1373 31.3699 33.0299 33.2937 33.0299C35.2172 33.0299 36.2308 32.1373 37.0451 31.4203C37.7723 30.7802 38.2971 30.3178 39.4534 30.3178V28.2838C37.5292 28.2838 36.5156 29.1764 35.7013 29.8934C34.9745 30.5334 34.4494 30.9958 33.2934 30.9958Z" fill="#212529"/>
<path d="M39.641 12.456C39.4681 12.1136 39.1166 11.8977 38.7332 11.8977H28.1108C27.8627 11.8977 27.623 11.9885 27.4369 12.153L25.6724 13.7137L23.1078 7.25334C22.9542 6.86551 22.5793 6.61126 22.163 6.61126H10.8121V0H8.77808V6.61126H6.99289C6.59015 6.61126 6.22504 6.84924 6.06232 7.21774L2.93941 14.2972H1.76713C1.45966 14.2972 1.16879 14.4362 0.975898 14.6752C0.782665 14.9142 0.708084 15.2277 0.772834 15.5284L2.50108 23.5499V24.7222C3.6564 24.7222 4.18152 25.1843 4.90801 25.8243C5.7223 26.5417 6.73558 27.4343 8.65909 27.4343C10.5823 27.4343 11.5955 26.5417 12.4098 25.8243C13.136 25.1843 13.6608 24.7222 14.8157 24.7222C15.9714 24.7222 16.4962 25.1846 17.2227 25.8243C18.037 26.5417 19.0506 27.4343 20.9741 27.4343C22.8976 27.4343 23.9112 26.5417 24.7255 25.8243C25.452 25.1846 25.9768 24.7222 27.1331 24.7222C28.2895 24.7222 28.8142 25.1846 29.5407 25.8247C30.355 26.5417 31.369 27.4343 33.2928 27.4343C35.2163 27.4343 36.23 26.5417 37.0443 25.8247C37.7714 25.1846 38.2962 24.7222 39.4525 24.7222V22.6882C37.5284 22.6882 36.5147 23.5808 35.7004 24.2978C34.974 24.9378 34.4492 25.4002 33.2928 25.4002C32.3792 25.4002 31.8588 25.109 31.3222 24.6717L39.5515 13.5188C39.7793 13.2096 39.8136 12.7988 39.641 12.456ZM7.65598 8.64529H21.4724L23.7156 14.2972H5.16294L7.65598 8.64529ZM29.7316 23.4011C29.0841 22.9991 28.2671 22.6879 27.1328 22.6879C25.2086 22.6879 24.1957 23.5805 23.3814 24.2978C22.6542 24.9375 22.1294 25.3999 20.9738 25.3999C19.8181 25.3999 19.293 24.9375 18.5668 24.2978C17.7525 23.5805 16.7389 22.6879 14.8154 22.6879C12.8922 22.6879 11.879 23.5805 11.065 24.2978C10.3389 24.9378 9.81408 25.3999 8.65909 25.3999C7.50376 25.3999 6.97865 24.9378 6.25216 24.2978C5.77688 23.8791 5.2321 23.4015 4.47951 23.076L3.02654 16.3312H3.60284H25.2144H25.3984C25.6466 16.3312 25.8863 16.2403 26.0717 16.0759L28.4963 13.9317H36.7192L29.7316 23.4011Z" fill="#212529"/>
<path d="M11.044 10.4542H8.54688V12.4882H11.044V10.4542Z" fill="#212529"/>
<path d="M15.8159 10.4542H13.3184V12.4882H15.8159V10.4542Z" fill="#212529"/>
<path d="M20.5892 10.4542H18.0918V12.4882H20.5892V10.4542Z" fill="#212529"/>
</svg>
