<svg width="18" height="18" viewBox="0 0 18 18" fill="none" xmlns="http://www.w3.org/2000/svg">
<path d="M9.03735 11.5875H9.53735C9.53735 11.3113 9.3135 11.0875 9.03735 11.0875V11.5875ZM9.03735 11.6625L9.03723 12.1625C9.16986 12.1625 9.29707 12.1098 9.39086 12.0161C9.48466 11.9223 9.53735 11.7951 9.53735 11.6625H9.03735ZM8.96265 11.6624H8.46265C8.46265 11.9385 8.68643 12.1624 8.96252 12.1624L8.96265 11.6624ZM8.96265 11.5875V11.0875C8.6865 11.0875 8.46265 11.3113 8.46265 11.5875H8.96265ZM9.5 6.33746C9.5 6.06132 9.27614 5.83746 9 5.83746C8.72386 5.83746 8.5 6.06132 8.5 6.33746H9H9.5ZM8.5 9.33746C8.5 9.61361 8.72386 9.83746 9 9.83746C9.27614 9.83746 9.5 9.61361 9.5 9.33746H9H8.5ZM9 15.75V15.25C5.54822 15.25 2.75 12.4518 2.75 9H2.25H1.75C1.75 13.0041 4.99594 16.25 9 16.25V15.75ZM2.25 9H2.75C2.75 5.54822 5.54822 2.75 9 2.75V2.25V1.75C4.99594 1.75 1.75 4.99594 1.75 9H2.25ZM9 2.25V2.75C12.4518 2.75 15.25 5.54822 15.25 9H15.75H16.25C16.25 4.99594 13.0041 1.75 9 1.75V2.25ZM15.75 9H15.25C15.25 12.4518 12.4518 15.25 9 15.25V15.75V16.25C13.0041 16.25 16.25 13.0041 16.25 9H15.75ZM9.03735 11.5875H8.53735V11.6625H9.03735H9.53735V11.5875H9.03735ZM9.03735 11.6625L9.03748 11.1625L8.96277 11.1624L8.96265 11.6624L8.96252 12.1624L9.03723 12.1625L9.03735 11.6625ZM8.96265 11.6624H9.46265V11.5875H8.96265H8.46265V11.6624H8.96265ZM8.96265 11.5875V12.0875H9.03735V11.5875V11.0875H8.96265V11.5875ZM9 6.33746H8.5V9.33746H9H9.5V6.33746H9Z" fill="#0090FF"/>
</svg>
