<svg width="14" height="14" viewBox="0 0 14 14" fill="none" xmlns="http://www.w3.org/2000/svg">
<path d="M4.45553 4.18511L6.23219 0.67511C6.31886 0.501777 6.44886 0.41511 6.62219 0.41511C6.79553 0.41511 6.92553 0.501777 7.01219 0.67511L8.78886 4.18511L12.7755 4.74844C12.8622 4.77733 12.9416 4.82789 13.0139 4.90011C13.0861 4.97233 13.1222 5.06622 13.1222 5.18178C13.1222 5.29733 13.0789 5.41289 12.9922 5.52844L10.1322 8.25844L10.7822 12.0718C10.8111 12.274 10.7605 12.4257 10.6305 12.5268C10.5005 12.6279 10.3489 12.6496 10.1755 12.5918L6.62219 10.7284L3.06886 12.5918H2.93886C2.79441 12.6207 2.67164 12.5846 2.57053 12.4834C2.46941 12.3823 2.4333 12.2451 2.46219 12.0718L3.11219 8.25844L0.252192 5.52844C0.165526 5.44178 0.122192 5.34066 0.122192 5.22511C0.122192 5.10955 0.151081 5.00844 0.208859 4.92178C0.266637 4.83511 0.367748 4.77733 0.512192 4.74844L4.45553 4.18511ZM6.62219 9.81844C6.67997 9.78955 6.73775 9.804 6.79553 9.86178L9.78553 11.3784L9.22219 8.17178C9.1933 7.99844 9.23664 7.854 9.35219 7.73844L11.7355 5.48511L8.44219 5.05178C8.29775 5.02289 8.19664 4.93622 8.13886 4.79178L6.62219 1.84511V9.81844Z" fill="#FFC107"/>
</svg>
