<svg width="15" height="14" viewBox="0 0 15 14" fill="none" xmlns="http://www.w3.org/2000/svg">
<path d="M8.21552 0.0684719C7.83996 -0.0181952 7.4933 0.0540276 7.17552 0.285138C6.85774 0.51625 6.68441 0.819583 6.65552 1.19514C6.59774 2.11958 6.48219 2.82736 6.30885 3.31847C6.25107 3.49181 6.14996 3.70125 6.00552 3.94681C5.86107 4.19236 5.68774 4.43069 5.48552 4.66181C4.96552 5.23958 4.38774 5.61514 3.75219 5.78847C3.4633 5.87514 3.2033 6.03403 2.97219 6.26514C2.74107 6.49625 2.62552 6.77069 2.62552 7.08847V10.3818C2.65441 10.6996 2.77719 10.974 2.99385 11.2051C3.21052 11.4362 3.49219 11.5662 3.83885 11.5951C4.21441 11.6529 4.54663 11.7396 4.83552 11.8551C5.00885 11.9129 5.22552 12.0285 5.48552 12.2018L5.52885 12.2451C5.84663 12.4185 6.12107 12.5485 6.35219 12.6351C6.66996 12.7507 7.05996 12.8085 7.52219 12.8085H10.3822C10.7289 12.8085 11.0394 12.729 11.3139 12.5701C11.5883 12.4112 11.7977 12.209 11.9422 11.9635C12.0866 11.7179 12.1589 11.4651 12.1589 11.2051C12.1589 11.0607 12.13 10.9307 12.0722 10.8151C12.2455 10.584 12.3755 10.3385 12.4622 10.0785C12.5777 9.73181 12.5777 9.42847 12.4622 9.16847C12.52 9.05292 12.5633 8.93736 12.5922 8.82181C12.6789 8.61958 12.7222 8.38847 12.7222 8.12847C12.7222 7.86847 12.6789 7.63736 12.5922 7.43514C12.5633 7.31958 12.5344 7.21847 12.5055 7.1318C12.65 6.92958 12.7366 6.70569 12.7655 6.46014C12.7944 6.21458 12.7655 5.96903 12.6789 5.72347C12.5922 5.47792 12.4622 5.26125 12.2889 5.07347C12.1155 4.88569 11.9277 4.76292 11.7255 4.70514C11.1477 4.50292 10.4689 4.44514 9.68885 4.53181L9.29885 4.57514C9.58774 3.33292 9.5733 2.10514 9.25552 0.891805C9.19774 0.689583 9.09663 0.523472 8.95219 0.393472C8.80774 0.263472 8.63441 0.169583 8.43219 0.111805L8.21552 0.0684719ZM10.3822 11.9851H7.52219C7.17552 11.9851 6.87219 11.9418 6.61219 11.8551C6.43885 11.7974 6.22219 11.6962 5.96219 11.5518L5.91885 11.5085C5.62996 11.3351 5.36996 11.2051 5.13885 11.1185C4.79219 10.974 4.38774 10.8729 3.92552 10.8151C3.78107 10.7862 3.66552 10.7285 3.57885 10.6418C3.49219 10.5551 3.44885 10.4685 3.44885 10.3818V7.08847C3.44885 7.0018 3.49941 6.90792 3.60052 6.80681C3.70163 6.70569 3.82441 6.62625 3.96885 6.56847C4.74885 6.36625 5.45663 5.90403 6.09219 5.18181C6.3233 4.9218 6.52552 4.64736 6.69885 4.35847C6.87219 4.06958 7.00219 3.80958 7.08885 3.57847C7.29107 3.02958 7.42107 2.26403 7.47885 1.28181C7.47885 1.13736 7.53663 1.0218 7.65219 0.935139C7.76774 0.848472 7.89774 0.819583 8.04219 0.848472L8.25885 0.891805C8.37441 0.920694 8.44663 0.992916 8.47552 1.10847C8.82219 2.40847 8.77885 3.69403 8.34552 4.96514C8.28774 5.10958 8.31663 5.23958 8.43219 5.35514C8.54774 5.47069 8.67774 5.51403 8.82219 5.48514L8.90885 5.4418C9.16885 5.38403 9.4433 5.34069 9.73219 5.31181C10.4255 5.25403 11.0033 5.31181 11.4655 5.48514C11.5522 5.48514 11.6389 5.53569 11.7255 5.63681C11.8122 5.73792 11.87 5.86069 11.8989 6.00514C12.0144 6.29403 11.9422 6.56847 11.6822 6.82847L11.4222 7.08847L11.6822 7.39181C11.74 7.44958 11.7905 7.54347 11.8339 7.67347C11.8772 7.80347 11.8989 7.95514 11.8989 8.12847C11.8989 8.30181 11.8772 8.45347 11.8339 8.58347C11.7905 8.71347 11.74 8.80736 11.6822 8.86514L11.4222 9.12514L11.6822 9.42847C11.7689 9.48625 11.7761 9.63069 11.7039 9.8618C11.6316 10.0929 11.4944 10.2951 11.2922 10.4685L10.9889 10.7718L11.2922 11.0751C11.3211 11.0751 11.3355 11.1257 11.3355 11.2268C11.3355 11.3279 11.3066 11.4218 11.2489 11.5085C11.0755 11.8262 10.7866 11.9851 10.3822 11.9851Z" fill="white"/>
</svg>
