<svg width="19" height="19" viewBox="0 0 19 19" fill="none" xmlns="http://www.w3.org/2000/svg">
<path fill-rule="evenodd" clip-rule="evenodd" d="M6.85503 3.61796C6.67851 3.68588 6.17321 3.96635 5.82003 4.19249C4.3249 5.14974 2.84409 6.66651 1.95916 8.14716C1.77709 8.45179 1.56555 8.8531 1.5364 8.94917C1.50186 9.06303 1.50186 9.24728 1.5364 9.36115C1.59021 9.5385 1.9302 10.1367 2.23927 10.5977C3.35194 12.2577 5.05462 13.7973 6.67078 14.6048C6.86209 14.7003 6.88237 14.7065 7.03078 14.7134C7.15786 14.7194 7.21048 14.7133 7.30503 14.6819C7.74587 14.5352 7.94997 14.0552 7.74657 13.6436C7.66665 13.4819 7.54251 13.365 7.33826 13.2589C6.37974 12.7612 5.44642 12.0389 4.59884 11.1387C4.24203 10.7598 3.77592 10.1961 3.62468 9.96066L3.59289 9.91116L10.2955 9.91101C14.8051 9.91092 17.0363 9.90482 17.1151 9.89235C17.2705 9.86772 17.4041 9.79823 17.5213 9.68097C17.8724 9.32988 17.7936 8.75435 17.3596 8.50003C17.1774 8.39325 17.6365 8.39981 10.3135 8.39946L3.59289 8.39916L3.62468 8.34966C3.77457 8.11625 4.24831 7.54205 4.59159 7.1777C5.4441 6.27284 6.37753 5.55023 7.33826 5.05136C7.54602 4.94348 7.66638 4.82886 7.75037 4.65896C7.81431 4.52957 7.81803 4.5126 7.81803 4.35011C7.81803 4.22454 7.80878 4.15388 7.78376 4.08816C7.71172 3.89909 7.57282 3.74603 7.39555 3.66048C7.29153 3.61028 7.25735 3.60318 7.09803 3.59874C6.97907 3.59543 6.89667 3.60194 6.85503 3.61796Z" fill="#0B0A13"/>
</svg>
