<svg width="20" height="21" viewBox="0 0 20 21" fill="none" xmlns="http://www.w3.org/2000/svg">
<path d="M1.26667 10.5801C1.26667 12.1801 1.65556 13.6467 2.43333 14.9801C3.21111 16.3134 4.26667 17.369 5.6 18.1467C6.93333 18.9245 8.4 19.3134 10 19.3134C11.6 19.3134 13.0667 18.9245 14.4 18.1467C15.7333 17.369 16.7889 16.3134 17.5667 14.9801C18.3444 13.6467 18.7333 12.1801 18.7333 10.5801C18.7333 8.98008 18.3444 7.51341 17.5667 6.18008C16.7889 4.84674 15.7333 3.79119 14.4 3.01341C13.0667 2.23563 11.6 1.84674 10 1.84674C8.4 1.84674 6.93333 2.23563 5.6 3.01341C4.26667 3.79119 3.21111 4.84674 2.43333 6.18008C1.65556 7.51341 1.26667 8.98008 1.26667 10.5801ZM20 10.5801C20 12.4023 19.5556 14.0801 18.6667 15.6134C17.7778 17.1467 16.5667 18.3579 15.0333 19.2467C13.5 20.1356 11.8222 20.5801 10 20.5801C8.17778 20.5801 6.5 20.1356 4.96667 19.2467C3.43333 18.3579 2.22222 17.1467 1.33333 15.6134C0.444444 14.0801 0 12.4023 0 10.5801C0 8.75786 0.444444 7.08008 1.33333 5.54674C2.22222 4.01341 3.43333 2.8023 4.96667 1.91341C6.5 1.02452 8.17778 0.580076 10 0.580076C11.8222 0.580076 13.5 1.02452 15.0333 1.91341C16.5667 2.8023 17.7778 4.01341 18.6667 5.54674C19.5556 7.08008 20 8.75786 20 10.5801ZM5.6 9.98008C5.42222 9.98008 5.27778 10.0356 5.16667 10.1467C5.05556 10.2579 5 10.4023 5 10.5801C5 10.7579 5.05556 10.9023 5.16667 11.0134C5.27778 11.1245 5.42222 11.1801 5.6 11.1801H12.8667L10.2 13.9134C10.0667 14.0023 10 14.1356 10 14.3134C10 14.4912 10.0556 14.6467 10.1667 14.7801C10.2778 14.9134 10.4222 14.9801 10.6 14.9801C10.7778 14.9801 10.9333 14.9134 11.0667 14.7801L14.8 11.0467C14.9333 10.9134 15 10.7579 15 10.5801C15 10.4023 14.9333 10.2467 14.8 10.1134L11.0667 6.38008C10.8889 6.2023 10.6889 6.14674 10.4667 6.21341C10.2444 6.28008 10.1 6.43563 10.0333 6.68008C9.96667 6.92452 10.0222 7.11341 10.2 7.24674L12.8667 9.98008H5.6Z" fill="white"/>
</svg>
