<svg width="24" height="24" viewBox="0 0 24 24" fill="none" xmlns="http://www.w3.org/2000/svg">
<path fill-rule="evenodd" clip-rule="evenodd" d="M15.5311 7.47C15.6716 7.61062 15.7505 7.80125 15.7505 8C15.7505 8.19875 15.6716 8.38937 15.5311 8.53L12.0311 12.03C11.8905 12.1704 11.6999 12.2493 11.5011 12.2493C11.3024 12.2493 11.1118 12.1704 10.9711 12.03L8.97113 10.03C8.89744 9.96133 8.83834 9.87853 8.79735 9.78653C8.75636 9.69454 8.73432 9.59522 8.73254 9.49452C8.73076 9.39382 8.74929 9.29379 8.78701 9.2004C8.82473 9.10701 8.88087 9.02218 8.95209 8.95096C9.02331 8.87974 9.10814 8.82359 9.20153 8.78587C9.29492 8.74815 9.39495 8.72963 9.49565 8.7314C9.59636 8.73318 9.69567 8.75522 9.78767 8.79622C9.87967 8.83721 9.96247 8.89631 10.0311 8.97L11.5011 10.44L14.4711 7.47C14.6118 7.32955 14.8024 7.25066 15.0011 7.25066C15.1999 7.25066 15.3905 7.32955 15.5311 7.47Z" fill="black"/>
<path fill-rule="evenodd" clip-rule="evenodd" d="M3.52438 8.857C3.6953 6.7838 4.6396 4.85069 6.16979 3.44147C7.69998 2.03226 9.70415 1.24999 11.7844 1.25H12.2164C14.2966 1.24999 16.3008 2.03226 17.831 3.44147C19.3612 4.85069 20.3054 6.7838 20.4764 8.857C20.6666 11.1663 19.9532 13.4593 18.4864 15.253L13.6934 21.114C13.4883 21.3648 13.23 21.567 12.9372 21.7058C12.6444 21.8445 12.3244 21.9165 12.0004 21.9165C11.6764 21.9165 11.3564 21.8445 11.0636 21.7058C10.7708 21.567 10.5125 21.3648 10.3074 21.114L5.51438 15.253C4.04749 13.4593 3.33406 11.1663 3.52438 8.857ZM11.7844 2.75C10.0809 2.75026 8.43971 3.39103 7.1867 4.54512C5.93368 5.69921 5.16041 7.28225 5.02038 8.98C4.86198 10.9019 5.45566 12.8102 6.67638 14.303L11.4694 20.165C11.5338 20.2439 11.615 20.3074 11.707 20.351C11.799 20.3947 11.8995 20.4173 12.0014 20.4173C12.1032 20.4173 12.2038 20.3947 12.2958 20.351C12.3878 20.3074 12.4689 20.2439 12.5334 20.165L17.3264 14.303C18.5464 12.8099 19.1393 10.9016 18.9804 8.98C18.8403 7.28208 18.0669 5.6989 16.8137 4.54478C15.5605 3.39066 13.9191 2.75001 12.2154 2.75H11.7834H11.7844Z" fill="black"/>
</svg>
