<svg width="24" height="24" viewBox="0 0 24 24" fill="none" xmlns="http://www.w3.org/2000/svg">
<path fill-rule="evenodd" clip-rule="evenodd" d="M1 9.60414C1 6.43862 3.844 4 7.18 4C8.8996 4 10.414 4.78786 11.5 5.80786C12.586 4.78786 14.0992 4 15.82 4C19.156 4 22 6.43862 22 9.60414C22 11.7731 21.0532 13.6794 19.7416 15.2927C18.4336 16.9012 16.72 18.2671 15.0808 19.3774C14.4532 19.8018 13.8208 20.1922 13.24 20.4806C12.6952 20.7514 12.07 21 11.5 21C10.93 21 10.3048 20.7514 9.76 20.4806C9.12289 20.1524 8.50838 19.7838 7.9204 19.3774C6.28 18.2671 4.5676 16.9012 3.2584 15.2927C1.9468 13.6794 1 11.7731 1 9.60414ZM7.18 5.75862C4.684 5.75862 2.8 7.55241 2.8 9.60414C2.8 11.249 3.5152 12.7814 4.6672 14.1977C5.8216 15.6163 7.3756 16.8696 8.9452 17.9318C9.5392 18.3339 10.0972 18.6751 10.5772 18.9143C11.0908 19.1699 11.3884 19.2414 11.5 19.2414C11.6116 19.2414 11.9092 19.1699 12.424 18.9131C12.9891 18.6207 13.5342 18.293 14.056 17.9318C15.6244 16.8696 17.1784 15.6174 18.3328 14.1977C19.4848 12.7814 20.2 11.249 20.2 9.60414C20.2 7.55241 18.316 5.75862 15.82 5.75862C14.3872 5.75862 13.048 6.59455 12.214 7.65676C12.13 7.76376 12.0219 7.85043 11.898 7.91008C11.7742 7.96973 11.638 8.00076 11.5 8.00076C11.362 8.00076 11.2258 7.96973 11.102 7.91008C10.9781 7.85043 10.87 7.76376 10.786 7.65676C9.952 6.59455 8.614 5.75862 7.18 5.75862Z" fill="black"/>
</svg>
