<svg width="24" height="24" viewBox="0 0 24 24" fill="none" xmlns="http://www.w3.org/2000/svg">
<path fill-rule="evenodd" clip-rule="evenodd" d="M12 4.75C11.0479 4.75 10.1052 4.93753 9.22554 5.30187C8.34593 5.66622 7.5467 6.20025 6.87348 6.87348C6.20025 7.5467 5.66622 8.34593 5.30187 9.22554C4.93753 10.1052 4.75 11.0479 4.75 12C4.75 12.9521 4.93753 13.8948 5.30187 14.7745C5.66622 15.6541 6.20025 16.4533 6.87348 17.1265C7.5467 17.7997 8.34593 18.3338 9.22554 18.6981C10.1052 19.0625 11.0479 19.25 12 19.25C13.9228 19.25 15.7669 18.4862 17.1265 17.1265C18.4862 15.7669 19.25 13.9228 19.25 12C19.25 10.0772 18.4862 8.23311 17.1265 6.87348C15.7669 5.51384 13.9228 4.75 12 4.75ZM3.25 12C3.25 9.67936 4.17187 7.45376 5.81282 5.81282C7.45376 4.17187 9.67936 3.25 12 3.25C14.3206 3.25 16.5462 4.17187 18.1872 5.81282C19.8281 7.45376 20.75 9.67936 20.75 12C20.75 14.3206 19.8281 16.5462 18.1872 18.1872C16.5462 19.8281 14.3206 20.75 12 20.75C9.67936 20.75 7.45376 19.8281 5.81282 18.1872C4.17187 16.5462 3.25 14.3206 3.25 12Z" fill="black"/>
<path fill-rule="evenodd" clip-rule="evenodd" d="M10.8497 9.309C9.91613 10.0768 9.29231 11.1567 9.09367 12.349L8.65567 14.982C8.42867 16.35 10.0187 17.267 11.0887 16.387L13.1497 14.691C14.0832 13.9232 14.707 12.8433 14.9057 11.651L15.3437 9.018C15.5707 7.65 13.9807 6.733 12.9107 7.613L10.8497 9.31V9.309ZM11.9997 10.5C11.6018 10.5 11.2203 10.658 10.939 10.9393C10.6577 11.2206 10.4997 11.6022 10.4997 12C10.4997 12.3978 10.6577 12.7794 10.939 13.0607C11.2203 13.342 11.6018 13.5 11.9997 13.5C12.3975 13.5 12.779 13.342 13.0603 13.0607C13.3416 12.7794 13.4997 12.3978 13.4997 12C13.4997 11.6022 13.3416 11.2206 13.0603 10.9393C12.779 10.658 12.3975 10.5 11.9997 10.5Z" fill="black"/>
</svg>
