<svg width="24" height="24" viewBox="0 0 24 24" fill="none" xmlns="http://www.w3.org/2000/svg">
<path fill-rule="evenodd" clip-rule="evenodd" d="M11.7623 3.25C12.2223 3.256 12.7523 3.473 13.0383 3.984L13.2123 4.296C15.8463 8.99072 18.0146 13.9319 19.6863 19.049C19.9043 19.719 19.5463 20.286 19.0973 20.549C18.8604 20.6867 18.59 20.7562 18.316 20.7496C18.0421 20.7431 17.7753 20.6609 17.5453 20.512L12.8173 17.472C12.2953 17.136 11.5863 17.135 11.0973 17.444L6.46426 20.37C6.23162 20.5151 5.96333 20.5928 5.68918 20.5945C5.41503 20.5963 5.14575 20.522 4.91126 20.38C4.48426 20.125 4.10226 19.572 4.30126 18.898C5.80168 13.8372 7.81409 8.9426 10.3073 4.29L10.4713 3.982C10.7553 3.451 11.3033 3.245 11.7613 3.252L11.7623 3.25ZM11.7553 4.763L11.6303 4.996C9.24038 9.45684 7.3008 14.1446 5.84026 18.99L10.2953 16.177C11.2953 15.547 12.6323 15.57 13.6293 16.211L18.1253 19.103C16.5021 14.225 14.4187 9.51249 11.9033 5.029L11.7553 4.763Z" fill="black"/>
</svg>
