<svg width="14" height="14" viewBox="0 0 14 14" fill="none" xmlns="http://www.w3.org/2000/svg">
<g clip-path="url(#clip0_4330_5943)">
<path d="M12.7681 10.5487C12.6633 10.3738 12.4642 10.2783 12.2622 10.3061C11.9921 10.3434 11.7165 10.3623 11.4433 10.3623C9.33758 10.3623 7.35849 9.24148 6.27838 7.43723C5.0373 5.36408 5.15417 2.7619 6.57613 0.807889C6.69611 0.643006 6.70601 0.422369 6.60125 0.247396C6.49653 0.0723954 6.29733 -0.0231165 6.09539 0.00480154C5.1575 0.13422 4.26702 0.448209 3.44868 0.9381C0.122851 2.92906 -0.963108 7.25457 1.02788 10.5804C3.02493 13.9163 7.34487 14.9918 10.6702 13.0012C11.4885 12.5113 12.1859 11.8747 12.743 11.1092C12.863 10.9443 12.8729 10.7237 12.7681 10.5487ZM10.1477 12.1284C7.26136 13.8564 3.5776 12.8593 1.90061 10.0579C0.197718 7.21334 1.12653 3.51372 3.97114 1.8108C4.33541 1.59271 4.71628 1.41539 5.11072 1.27987C4.08595 3.38934 4.17157 5.89818 5.40562 7.95963C6.63275 10.0096 8.79581 11.2764 11.1552 11.3735C10.8491 11.6577 10.5125 11.91 10.1477 12.1284Z" fill="#5EB7FC"/>
<path d="M9.50937 2.92078L9.27394 2.56468C9.24734 2.52443 9.24004 2.4744 9.25412 2.42821L9.3784 2.0198C9.42258 1.87461 9.26071 1.75386 9.13413 1.83756L8.77804 2.07299C8.73779 2.09959 8.68775 2.10689 8.64156 2.09281L8.23318 1.96856C8.08799 1.92437 7.96724 2.08625 8.05094 2.21282L8.28637 2.56892C8.31297 2.60917 8.32027 2.65921 8.30619 2.7054L8.18194 3.1138C8.13773 3.259 8.2996 3.37972 8.4262 3.29605L8.7823 3.06062C8.82255 3.03401 8.87259 3.02671 8.91877 3.04079L9.32718 3.16505C9.47232 3.20921 9.5931 3.04733 9.50937 2.92078Z" fill="#5EB7FC"/>
<path d="M13.0316 6.66941L12.887 6.61732C12.8416 6.60096 12.8058 6.5652 12.7895 6.51981L12.7374 6.37516C12.6859 6.23237 12.484 6.23237 12.4326 6.37516L12.3805 6.51981C12.3641 6.5652 12.3284 6.60099 12.283 6.61732L12.1383 6.66941C11.9956 6.72081 11.9956 6.92275 12.1383 6.97418L12.283 7.02627C12.3284 7.04262 12.3642 7.07839 12.3805 7.12378L12.4326 7.26843C12.484 7.41121 12.6859 7.41121 12.7374 7.26843L12.7895 7.12378C12.8058 7.07839 12.8416 7.04259 12.887 7.02627L13.0316 6.97418C13.1744 6.9228 13.1744 6.72084 13.0316 6.66941Z" fill="#5EB7FC"/>
<path d="M13.8608 1.04153C13.8153 1.02518 13.7796 0.989417 13.7633 0.944027C13.7119 0.80121 13.5099 0.80121 13.4585 0.944027C13.4422 0.989417 13.4064 1.02521 13.361 1.04153C13.2182 1.09294 13.2182 1.29487 13.361 1.34631C13.4064 1.36266 13.4422 1.39843 13.4585 1.44382C13.5099 1.58661 13.7118 1.58661 13.7633 1.44382C13.7796 1.39843 13.8154 1.36263 13.8608 1.34631C14.0036 1.2949 14.0036 1.09297 13.8608 1.04153Z" fill="#5EB7FC"/>
</g>
<defs>
<clipPath id="clip0_4330_5943">
<rect width="14" height="14" fill="white"/>
</clipPath>
</defs>
</svg>
