<svg width="18" height="18" viewBox="0 0 18 18" fill="none" xmlns="http://www.w3.org/2000/svg">
<g clip-path="url(#clip0_4330_5477)">
<path d="M16.417 13.5626C16.2822 13.3377 16.0262 13.215 15.7665 13.2508C15.4192 13.2987 15.065 13.323 14.7136 13.323C12.0063 13.323 9.46175 11.8819 8.07304 9.56215C6.47736 6.89667 6.62762 3.55102 8.45586 1.03871C8.61012 0.826722 8.62285 0.543046 8.48816 0.31808C8.35352 0.0930798 8.0974 -0.0297212 7.83777 0.00617341C6.63191 0.172568 5.48701 0.576268 4.43485 1.20613C0.158788 3.76593 -1.23745 9.32731 1.32239 13.6033C3.89003 17.8924 9.44424 19.2752 13.7196 16.7158C14.7718 16.086 15.6684 15.2675 16.3847 14.2832C16.5389 14.0712 16.5517 13.7876 16.417 13.5626ZM13.0479 15.5937C9.33687 17.8153 4.60061 16.5334 2.44448 12.9316C0.255046 9.27429 1.44924 4.51764 5.10658 2.32818C5.57494 2.04777 6.06463 1.81978 6.57176 1.64555C5.2542 4.35772 5.36428 7.58338 6.95092 10.2338C8.52866 12.8695 11.3097 14.4982 14.3433 14.6231C13.9497 14.9885 13.5169 15.3129 13.0479 15.5937Z" fill="#5EB7FC"/>
<path d="M12.2269 3.75522L11.9242 3.29738C11.89 3.24563 11.8806 3.1813 11.8987 3.12192L12.0585 2.59682C12.1153 2.41014 11.9072 2.25489 11.7444 2.36251L11.2866 2.6652C11.2349 2.69941 11.1705 2.70879 11.1111 2.69069L10.5861 2.53094C10.3994 2.47413 10.2441 2.68225 10.3518 2.84499L10.6545 3.30283C10.6887 3.35458 10.6981 3.41892 10.6799 3.4783L10.5202 4.00339C10.4633 4.19007 10.6715 4.34529 10.8342 4.23771L11.2921 3.93501C11.3438 3.9008 11.4082 3.89142 11.4676 3.90952L11.9926 4.06927C12.1793 4.12605 12.3345 3.91793 12.2269 3.75522Z" fill="#5EB7FC"/>
<path d="M16.7549 8.5746L16.5689 8.50763C16.5106 8.4866 16.4646 8.44062 16.4436 8.38226L16.3766 8.19628C16.3105 8.0127 16.0509 8.0127 15.9848 8.19628L15.9178 8.38226C15.8968 8.44062 15.8508 8.48664 15.7924 8.50763L15.6064 8.5746C15.4229 8.64069 15.4229 8.90032 15.6064 8.96645L15.7924 9.03343C15.8508 9.05445 15.8968 9.10043 15.9178 9.15879L15.9848 9.34477C16.0509 9.52836 16.3105 9.52836 16.3766 9.34477L16.4436 9.15879C16.4646 9.10043 16.5106 9.05441 16.5689 9.03343L16.7549 8.96645C16.9385 8.90039 16.9385 8.64073 16.7549 8.5746Z" fill="#5EB7FC"/>
<path d="M17.8213 1.33926C17.7629 1.31823 17.7169 1.27225 17.6959 1.21389C17.6298 1.03027 17.3702 1.03027 17.3041 1.21389C17.283 1.27225 17.2371 1.31827 17.1787 1.33926C16.9951 1.40535 16.9951 1.66498 17.1787 1.73111C17.2371 1.75213 17.2831 1.79812 17.3041 1.85648C17.3702 2.04006 17.6298 2.04006 17.6959 1.85648C17.7169 1.79812 17.7629 1.7521 17.8213 1.73111C18.0049 1.66501 18.0049 1.40538 17.8213 1.33926Z" fill="#5EB7FC"/>
</g>
<defs>
<clipPath id="clip0_4330_5477">
<rect width="18" height="18" fill="white"/>
</clipPath>
</defs>
</svg>
