<svg width="12" height="12" viewBox="0 0 12 12" fill="none" xmlns="http://www.w3.org/2000/svg">
<path d="M1.65199 1.51294C1.45627 1.51294 1.29112 1.58022 1.15656 1.71479C1.022 1.84935 0.95472 2.00226 0.95472 2.17352V7.67831C0.95472 7.87404 1.022 8.03918 1.15656 8.17374C1.29112 8.3083 1.45627 8.37558 1.65199 8.37558H8.22104C8.6125 8.37558 8.94278 8.51014 9.21191 8.77927L10.5698 10.1738V2.17352C10.5698 2.00226 10.5025 1.84935 10.3679 1.71479C10.2334 1.58022 10.0804 1.51294 9.90918 1.51294H1.65199ZM9.90918 0.815671C10.2762 0.815671 10.5942 0.950233 10.8633 1.21936C11.1325 1.48848 11.267 1.81877 11.267 2.21022V10.9812C11.267 11.1524 11.1936 11.2625 11.0468 11.3115C10.9 11.3604 10.7777 11.3359 10.6799 11.2381L8.69813 9.25635C8.5758 9.13402 8.41677 9.07286 8.22104 9.07286H1.65199C1.26054 9.07286 0.930254 8.9383 0.661131 8.66917C0.392008 8.40005 0.257446 8.06976 0.257446 7.67831V2.17352C0.257446 1.80653 0.392008 1.48848 0.661131 1.21936C0.930254 0.950233 1.26054 0.815671 1.65199 0.815671H9.90918ZM2.31257 3.23778C2.31257 3.13992 2.34927 3.05429 2.42266 2.98089C2.49606 2.90749 2.58169 2.87079 2.67955 2.87079H8.84492C8.94278 2.87079 9.02841 2.90749 9.10181 2.98089C9.17521 3.05429 9.21191 3.13992 9.21191 3.23778C9.21191 3.33564 9.17521 3.41515 9.10181 3.47632C9.02841 3.53748 8.94278 3.56807 8.84492 3.56807H2.67955C2.58169 3.56807 2.49606 3.53748 2.42266 3.47632C2.34927 3.41515 2.31257 3.33564 2.31257 3.23778ZM2.31257 4.92591C2.31257 4.85252 2.34927 4.77912 2.42266 4.70572C2.49606 4.63233 2.58169 4.59563 2.67955 4.59563H8.84492C8.94278 4.59563 9.02841 4.63233 9.10181 4.70572C9.17521 4.77912 9.21191 4.85863 9.21191 4.94426C9.21191 5.02989 9.17521 5.10941 9.10181 5.1828C9.02841 5.2562 8.94278 5.2929 8.84492 5.2929H2.67955C2.58169 5.2929 2.49606 5.2562 2.42266 5.1828C2.34927 5.10941 2.31257 5.03601 2.31257 4.96261V4.92591ZM2.31257 6.65075C2.31257 6.55289 2.34927 6.47337 2.42266 6.41221C2.49606 6.35104 2.58169 6.32046 2.67955 6.32046H6.09253C6.19039 6.32046 6.27602 6.35104 6.34942 6.41221C6.42281 6.47337 6.45951 6.55289 6.45951 6.65075C6.45951 6.74861 6.42281 6.83424 6.34942 6.90764C6.27602 6.98104 6.19039 7.01774 6.09253 7.01774H2.67955C2.58169 7.01774 2.49606 6.98104 2.42266 6.90764C2.34927 6.83424 2.31257 6.74861 2.31257 6.65075Z" fill="white"/>
</svg>
