<svg width="29" height="27" viewBox="0 0 29 27" fill="none" xmlns="http://www.w3.org/2000/svg">
<path d="M5.29386 19.8786C5.6672 20.2519 5.85386 20.7186 5.85386 21.2786C5.72942 22.4608 5.48053 23.643 5.1072 24.8253C6.97386 24.3897 8.52942 23.8608 9.77386 23.2386C10.1472 23.0519 10.5516 22.9897 10.9872 23.0519C12.1694 23.4253 13.3828 23.6119 14.6272 23.6119C16.9294 23.6119 19.0139 23.1297 20.8805 22.1653C22.7472 21.2008 24.2094 19.9097 25.2672 18.2919C26.325 16.6741 26.8539 14.9319 26.8539 13.0653C26.8539 11.1986 26.325 9.45637 25.2672 7.83859C24.2094 6.22081 22.7472 4.9297 20.8805 3.96526C19.0139 3.00081 16.9294 2.51859 14.6272 2.51859C12.325 2.51859 10.2405 3.00081 8.37386 3.96526C6.5072 4.9297 5.04498 6.22081 3.9872 7.83859C2.92942 9.45637 2.40053 11.1986 2.40053 13.0653C2.40053 14.3097 2.64942 15.523 3.1472 16.7053C3.64498 17.8875 4.36053 18.9453 5.29386 19.8786ZM4.45386 26.6919C4.01831 26.8164 3.61386 26.9097 3.24053 26.9719C3.05386 26.9719 2.89831 26.8941 2.77386 26.7386C2.64942 26.583 2.61831 26.443 2.68053 26.3186L3.1472 25.1986C3.64498 23.7675 3.95609 22.3986 4.08053 21.0919C2.96053 20.0341 2.10498 18.8053 1.51386 17.4053C0.922753 16.0053 0.627197 14.5586 0.627197 13.0653C0.627197 10.8253 1.24942 8.77192 2.49386 6.90526C3.73831 5.03859 5.43386 3.56081 7.58053 2.47192C9.7272 1.38303 12.0761 0.83859 14.6272 0.83859C17.1783 0.83859 19.5272 1.38303 21.6739 2.47192C23.8205 3.56081 25.5161 5.03859 26.7605 6.90526C28.005 8.77192 28.6272 10.8253 28.6272 13.0653C28.6272 15.3053 28.005 17.3586 26.7605 19.2253C25.5161 21.0919 23.8205 22.5697 21.6739 23.6586C19.5272 24.7475 17.1783 25.2919 14.6272 25.2919C13.2583 25.2919 11.8894 25.1364 10.5205 24.8253C8.96498 25.5719 6.94275 26.1941 4.45386 26.6919ZM7.6272 8.67859C7.6272 8.4297 7.70498 8.22748 7.86053 8.07192C8.01609 7.91637 8.21831 7.83859 8.4672 7.83859H20.7872C21.0361 7.83859 21.2383 7.91637 21.3939 8.07192C21.5494 8.22748 21.6272 8.4297 21.6272 8.67859C21.6272 8.92748 21.5494 9.14526 21.3939 9.33192C21.2383 9.51859 21.0361 9.61192 20.7872 9.61192H8.4672C8.21831 9.5497 8.01609 9.44081 7.86053 9.28526C7.70498 9.1297 7.6272 8.92748 7.6272 8.67859ZM7.6272 13.0653C7.6272 12.8164 7.70498 12.6141 7.86053 12.4586C8.01609 12.303 8.21831 12.2253 8.4672 12.2253H20.7872C21.0361 12.2253 21.2383 12.303 21.3939 12.4586C21.5494 12.6141 21.6272 12.8164 21.6272 13.0653C21.6272 13.3141 21.5494 13.5164 21.3939 13.6719C21.2383 13.8275 21.0361 13.9053 20.7872 13.9053H8.4672C8.21831 13.9053 8.01609 13.8275 7.86053 13.6719C7.70498 13.5164 7.6272 13.3141 7.6272 13.0653ZM7.6272 17.4519C7.6272 17.203 7.70498 16.9853 7.86053 16.7986C8.01609 16.6119 8.21831 16.5186 8.4672 16.5186H15.4672C15.7161 16.5808 15.9339 16.6897 16.1205 16.8453C16.3072 17.0008 16.4005 17.203 16.4005 17.4519C16.4005 17.7008 16.3072 17.903 16.1205 18.0586C15.9339 18.2141 15.7161 18.2919 15.4672 18.2919H8.4672C8.21831 18.2919 8.01609 18.2141 7.86053 18.0586C7.70498 17.903 7.6272 17.7008 7.6272 17.4519Z" fill="#212529"/>
</svg>
