<svg width="36" height="36" viewBox="0 0 36 36" fill="none" xmlns="http://www.w3.org/2000/svg">
<path d="M22.2533 12.6L19.5353 6.93538C18.2879 4.34518 14.3999 5.23078 14.3999 8.10538V11.3076L10.7999 10.3248V7.56718C10.7999 5.36758 7.89287 4.57558 6.77867 6.47278L4.03187 11.142C3.79333 11.5479 3.64882 12.0021 3.60896 12.4712C3.56911 12.9404 3.63492 13.4125 3.80156 13.8528C3.9682 14.2931 4.23142 14.6905 4.57188 15.0157C4.91233 15.3409 5.32136 15.5857 5.76887 15.732L11.9087 17.7426L8.89907 20.4912C6.77867 22.428 8.74607 25.8966 11.4947 25.0722L23.3963 21.501L28.8503 23.2866C29.2558 23.4194 29.687 23.4543 30.1086 23.3883C30.5302 23.3222 30.9301 23.1572 31.2756 22.9068C31.6211 22.6563 31.9023 22.3275 32.0962 21.9473C32.29 21.5672 32.391 21.1465 32.3909 20.7198V19.8C32.3909 17.8904 31.6323 16.0591 30.282 14.7088C28.9318 13.3585 27.1004 12.6 25.1909 12.6H22.2533ZM20.2553 12.6H19.3823C19.2224 12.6001 19.0632 12.5789 18.9089 12.537L16.1999 11.799V8.10178C16.1999 7.14418 17.4959 6.84898 17.9099 7.71298L20.2589 12.6H20.2553ZM3.59987 31.5C3.59987 31.2613 3.69469 31.0324 3.86347 30.8636C4.03225 30.6948 4.26117 30.6 4.49987 30.6H31.4999C31.7386 30.6 31.9675 30.6948 32.1363 30.8636C32.305 31.0324 32.3999 31.2613 32.3999 31.5C32.3999 31.7387 32.305 31.9676 32.1363 32.1364C31.9675 32.3052 31.7386 32.4 31.4999 32.4H4.49987C4.26117 32.4 4.03225 32.3052 3.86347 32.1364C3.69469 31.9676 3.59987 31.7387 3.59987 31.5ZM24.4565 19.9584C23.7653 19.7382 23.0237 19.7319 22.3289 19.9404L10.9799 23.346C10.0619 23.6214 9.40847 22.464 10.1159 21.8196L13.1255 19.0692C13.3574 18.8569 13.5296 18.5876 13.6251 18.2881C13.7206 17.9886 13.736 17.6693 13.6697 17.362C13.6034 17.0547 13.4578 16.7701 13.2474 16.5365C13.037 16.303 12.769 16.1286 12.4703 16.0308L6.32867 14.0202C6.13677 13.9576 5.96136 13.8527 5.81534 13.7134C5.66932 13.574 5.5564 13.4037 5.4849 13.2149C5.41341 13.0262 5.38515 12.8238 5.4022 12.6227C5.41926 12.4215 5.4812 12.2268 5.58347 12.0528L8.33027 7.38538C8.51567 7.06858 8.99987 7.20178 8.99987 7.56718V11.0124C8.99997 11.2096 9.06485 11.4013 9.18452 11.5581C9.3042 11.7148 9.47205 11.8279 9.66227 11.88L18.4337 14.274C18.7429 14.358 19.0619 14.4004 19.3823 14.4H25.1909C26.623 14.4 27.9965 14.9689 29.0092 15.9816C30.0219 16.9943 30.5909 18.3678 30.5909 19.8V20.718C30.591 20.8602 30.5575 21.0004 30.4931 21.1272C30.4286 21.2539 30.335 21.3636 30.22 21.4472C30.1049 21.5308 29.9717 21.5859 29.8312 21.6081C29.6908 21.6303 29.5471 21.6189 29.4119 21.5748L25.1135 20.1672L24.4565 19.9584Z" fill="#0090FF"/>
</svg>
