<svg width="36" height="36" viewBox="0 0 36 36" fill="none" xmlns="http://www.w3.org/2000/svg">
<path d="M26.1068 7.19997C23.5544 7.18197 21.3584 8.92797 20.3378 9.87657C19.9615 10.2467 19.5105 10.5321 19.0148 10.7136L18.2678 10.962L13.514 7.70397C13.0355 7.37567 12.4689 7.19996 11.8886 7.19997C9.50361 7.19997 8.15721 9.94497 9.62061 11.8314L10.859 13.4316L8.56581 14.1966L7.49841 11.9934C6.54801 10.0314 3.59961 10.71 3.59961 12.888V18.2628C3.59967 18.7647 3.71968 19.2593 3.94962 19.7055C4.17956 20.1516 4.51279 20.5364 4.92153 20.8276C5.33028 21.1189 5.80272 21.3083 6.29948 21.38C6.79625 21.4518 7.30296 21.4037 7.77741 21.24L13.2098 19.3626L12.6824 21.9996C12.1226 24.7986 15.719 26.4384 17.465 24.1812L23.0414 16.9704L30.5636 14.5386C32.072 14.049 32.9612 12.2346 31.8902 10.7748C30.8282 9.32217 28.8446 7.21977 26.1068 7.19997ZM12.6698 12.8286L11.0426 10.728C10.8866 10.5259 10.8078 10.2748 10.8203 10.0199C10.8328 9.76491 10.9358 9.52276 11.1108 9.33691C11.2858 9.15107 11.5213 9.03372 11.775 9.00594C12.0288 8.97816 12.2841 9.04178 12.4952 9.18537L16.1276 11.6766L12.6698 12.8286ZM21.5636 11.1942C22.5482 10.2762 24.2906 8.98737 26.0924 8.99997C27.9068 9.01257 29.4224 10.4508 30.4376 11.8368C30.4966 11.9114 30.5349 12.0004 30.5485 12.0946C30.5621 12.1888 30.5505 12.2849 30.515 12.3732C30.4695 12.4813 30.4005 12.5779 30.313 12.6561C30.2256 12.7342 30.1218 12.7919 30.0092 12.825L22.2224 15.345C22.0497 15.4007 21.8978 15.5074 21.7868 15.651L16.0412 23.0796C15.4598 23.832 14.2592 23.2866 14.4464 22.3524L14.9738 19.7172C15.0362 19.4063 15.0154 19.0845 14.9135 18.7842C14.8116 18.484 14.6321 18.216 14.3934 18.0074C14.1546 17.7988 13.865 17.6569 13.5538 17.5962C13.2426 17.5355 12.9209 17.558 12.6212 17.6616L7.19061 19.539C6.98708 19.6093 6.76968 19.6299 6.55655 19.5992C6.34342 19.5684 6.14075 19.487 5.96546 19.3619C5.79017 19.2369 5.64734 19.0717 5.54891 18.8801C5.45047 18.6886 5.39928 18.4763 5.39961 18.261V12.888C5.39961 12.798 5.42661 12.7512 5.45001 12.726C5.48827 12.6841 5.53859 12.6552 5.59401 12.6432C5.65013 12.6288 5.70938 12.6325 5.76321 12.654C5.79381 12.6666 5.83881 12.6954 5.87841 12.78L7.28961 15.6924C7.38501 15.8889 7.54866 16.0441 7.75003 16.1289C7.9514 16.2137 8.17674 16.2223 8.38401 16.1532L19.5836 12.42C20.363 12.1608 21.0218 11.6982 21.5636 11.1942ZM4.49961 30.6C4.26091 30.6 4.032 30.6948 3.86321 30.8636C3.69443 31.0324 3.59961 31.2613 3.59961 31.5C3.59961 31.7387 3.69443 31.9676 3.86321 32.1364C4.032 32.3051 4.26091 32.4 4.49961 32.4H31.4996C31.7383 32.4 31.9672 32.3051 32.136 32.1364C32.3048 31.9676 32.3996 31.7387 32.3996 31.5C32.3996 31.2613 32.3048 31.0324 32.136 30.8636C31.9672 30.6948 31.7383 30.6 31.4996 30.6H4.49961Z" fill="#0090FF"/>
</svg>
