<svg width="21" height="20" viewBox="0 0 21 20" fill="none" xmlns="http://www.w3.org/2000/svg">
<path d="M9.74894 0.92705C10.0483 0.00573985 11.3517 0.00574011 11.6511 0.927051L13.3268 6.0845C13.4607 6.49652 13.8446 6.77548 14.2779 6.77548H19.7007C20.6695 6.77548 21.0722 8.0151 20.2885 8.5845L15.9013 11.772C15.5508 12.0266 15.4042 12.478 15.5381 12.89L17.2138 18.0475C17.5132 18.9688 16.4587 19.7349 15.675 19.1655L11.2878 15.978C10.9373 15.7234 10.4627 15.7234 10.1122 15.978L5.72503 19.1655C4.94131 19.7349 3.88683 18.9688 4.18618 18.0475L5.86194 12.89C5.99581 12.478 5.84916 12.0266 5.49867 11.772L1.11148 8.5845C0.327766 8.0151 0.730542 6.77548 1.69927 6.77548H7.12213C7.55535 6.77548 7.93931 6.49652 8.07319 6.0845L9.74894 0.92705Z" fill="#FFC107"/>
</svg>
