<svg width="19" height="19" viewBox="0 0 19 19" fill="none" xmlns="http://www.w3.org/2000/svg">
<path fill-rule="evenodd" clip-rule="evenodd" d="M11.9313 3.6289C11.5035 3.78706 11.3088 4.26403 11.5077 4.66649C11.5876 4.82818 11.7118 4.94517 11.916 5.05122C13.0544 5.64236 14.1719 6.56315 15.1159 7.68802C15.315 7.92519 15.5585 8.23879 15.6296 8.34952L15.6614 8.39902L8.9498 8.39913C4.68321 8.39919 2.19924 8.40561 2.13122 8.41675C1.98602 8.44053 1.84873 8.51368 1.73002 8.63049C1.30192 9.05181 1.5439 9.79789 2.13923 9.89221C2.21795 9.90469 4.44914 9.91079 8.9588 9.91088L15.6614 9.91102L15.6296 9.96052C15.48 10.1934 15.0129 10.759 14.664 11.1296C13.8101 12.0368 12.8767 12.7599 11.916 13.2588C11.7118 13.3649 11.5876 13.4818 11.5077 13.6435C11.3045 14.0547 11.5137 14.5452 11.9512 14.6836C12.0408 14.7119 12.1011 14.7184 12.2235 14.7129C12.3723 14.7063 12.3916 14.7005 12.5835 14.6046C14.1753 13.8087 15.865 12.2904 16.9753 10.658C17.2831 10.2055 17.6632 9.54111 17.7184 9.35902C17.7523 9.24738 17.7522 9.06232 17.7182 8.95024C17.6405 8.69397 17.0766 7.76191 16.6823 7.23802C15.7887 6.05051 14.6101 4.9454 13.4342 4.19232C13.1665 4.02083 12.7646 3.79147 12.5506 3.68805C12.3838 3.60735 12.3661 3.60276 12.2025 3.59767C12.0643 3.59337 12.0107 3.59954 11.9313 3.6289Z" fill="#0B0A13"/>
</svg>
