<svg width="15" height="15" viewBox="0 0 15 15" fill="none" xmlns="http://www.w3.org/2000/svg">
<path d="M3.49037 13.6333C3.45926 13.8511 3.5137 14.0145 3.6537 14.1233C3.7937 14.2322 3.95703 14.2556 4.1437 14.1933L7.97037 12.1867L11.797 14.1933C11.9837 14.2556 12.147 14.2322 12.287 14.1233C12.427 14.0145 12.4815 13.8511 12.4504 13.6333L11.7504 9.52667L14.8304 6.58667C14.9548 6.43112 14.9937 6.26001 14.947 6.07334C14.9004 5.88667 14.7837 5.77778 14.597 5.74667L10.3037 5.14001L8.39037 1.36001C8.29703 1.17334 8.15703 1.08001 7.97037 1.08001C7.7837 1.08001 7.6437 1.17334 7.55037 1.36001L5.63703 5.14001L1.39037 5.74667C1.17259 5.77778 1.04037 5.88667 0.9937 6.07334C0.947034 6.26001 0.985923 6.43112 1.11037 6.58667L4.19037 9.52667L3.49037 13.6333ZM7.7837 11.2533L4.5637 12.8867L5.17037 9.43334C5.20148 9.24667 5.15481 9.09112 5.03037 8.96667L2.4637 6.54001L6.01037 6.07334C6.16592 6.04223 6.27481 5.9489 6.33703 5.79334L7.97037 2.62001L9.6037 5.79334C9.66592 5.9489 9.77481 6.04223 9.93037 6.07334L13.477 6.54001L10.9104 8.96667C10.7859 9.09112 10.7393 9.24667 10.7704 9.43334L11.377 12.8867L8.15703 11.2533C8.03259 11.16 7.90814 11.16 7.7837 11.2533Z" fill="#212529"/>
</svg>
