<svg width="16" height="15" viewBox="0 0 16 15" fill="none" xmlns="http://www.w3.org/2000/svg">
<g clip-path="url(#clip0_4330_5163)">
<path d="M1.51868 6.46051C1.3229 6.27945 1.42924 5.95214 1.69405 5.92075L5.44629 5.47587C5.55421 5.46307 5.64796 5.39507 5.69348 5.29638L7.27612 1.86522C7.38781 1.62307 7.73206 1.62304 7.84375 1.86519L9.42639 5.29643C9.47191 5.39512 9.56505 5.46308 9.67297 5.47588L13.4254 5.92075C13.6902 5.95214 13.7965 6.27947 13.6007 6.46053L10.8268 9.02599C10.747 9.09978 10.7114 9.20976 10.7325 9.31636L11.4688 13.0225C11.5208 13.284 11.2424 13.4863 11.0097 13.3561L7.71263 11.5105C7.61779 11.4574 7.50227 11.4573 7.40743 11.5104L4.11001 13.3561C3.87731 13.4863 3.59866 13.2841 3.65063 13.0225L4.38706 9.31632C4.40824 9.20972 4.37266 9.09981 4.29287 9.02602L1.51868 6.46051Z" fill="white" stroke="#12C647" stroke-width="2" stroke-linecap="round" stroke-linejoin="round"/>
</g>
<defs>
<clipPath id="clip0_4330_5163">
<rect width="15" height="15" fill="white" transform="translate(0.0585938)"/>
</clipPath>
</defs>
</svg>
