<svg width="16" height="16" viewBox="0 0 16 16" fill="none" xmlns="http://www.w3.org/2000/svg">
<g clip-path="url(#clip0_4330_6001)">
<path d="M1.96008 6.96051C1.7643 6.77945 1.87065 6.45214 2.13546 6.42075L5.8877 5.97587C5.99562 5.96307 6.08937 5.89507 6.13489 5.79638L7.71753 2.36522C7.82922 2.12307 8.17346 2.12304 8.28516 2.36519L9.8678 5.79643C9.91332 5.89512 10.0065 5.96308 10.1144 5.97588L13.8668 6.42075C14.1316 6.45214 14.2379 6.77947 14.0421 6.96053L11.2682 9.52599C11.1884 9.59978 11.1528 9.70976 11.174 9.81636L11.9102 13.5225C11.9622 13.784 11.6838 13.9863 11.4511 13.8561L8.15403 12.0105C8.0592 11.9574 7.94367 11.9573 7.84884 12.0104L4.55141 13.8561C4.31872 13.9863 4.04007 13.7841 4.09204 13.5225L4.82847 9.81632C4.84965 9.70972 4.81407 9.59981 4.73428 9.52602L1.96008 6.96051Z" fill="#0090FF" stroke="#0090FF" stroke-width="2" stroke-linecap="round" stroke-linejoin="round"/>
</g>
<defs>
<clipPath id="clip0_4330_6001">
<rect width="15" height="15" fill="white" transform="translate(0.5 0.5)"/>
</clipPath>
</defs>
</svg>
