<svg width="20" height="20" viewBox="0 0 20 20" fill="none" xmlns="http://www.w3.org/2000/svg">
<path d="M8.47535 1.75002C8.28472 1.55627 8.0066 1.47814 7.7441 1.55002C7.4816 1.62189 7.27847 1.82502 7.21285 2.08752L6.73472 3.96877C6.70035 4.10627 6.55972 4.18752 6.42535 4.14689L4.5566 3.62189C4.2941 3.54689 4.01285 3.62189 3.82222 3.81252C3.6316 4.00314 3.5566 4.28439 3.6316 4.54689L4.15972 6.41564C4.19722 6.55002 4.11597 6.69064 3.9816 6.72502L2.09722 7.20314C1.83472 7.26877 1.62847 7.47502 1.5566 7.73752C1.48472 8.00002 1.56285 8.27814 1.7566 8.46877L3.14722 9.82189C3.24722 9.91877 3.24722 10.0813 3.14722 10.1813L1.75972 11.5344C1.56597 11.725 1.48785 12.0031 1.55972 12.2656C1.6316 12.5281 1.83785 12.7313 2.10035 12.8L3.9816 13.2781C4.1191 13.3125 4.20035 13.4531 4.15972 13.5875L3.6316 15.4531C3.5566 15.7156 3.6316 15.9969 3.82222 16.1875C4.01285 16.3781 4.2941 16.4531 4.5566 16.3781L6.42535 15.85C6.55972 15.8125 6.70035 15.8938 6.73472 16.0281L7.21285 17.9094C7.27847 18.1719 7.48472 18.3781 7.74722 18.45C8.00972 18.5219 8.28785 18.4438 8.47847 18.25L9.8316 16.8594C9.92847 16.7594 10.091 16.7594 10.191 16.8594L11.541 18.25C11.7316 18.4438 12.0097 18.5219 12.2722 18.45C12.5347 18.3781 12.7378 18.1719 12.8066 17.9094L13.2847 16.0313C13.3191 15.8938 13.4597 15.8125 13.5941 15.8531L15.4628 16.3813C15.7253 16.4563 16.0066 16.3813 16.1972 16.1906C16.3878 16 16.4628 15.7188 16.3878 15.4563L15.8597 13.5875C15.8222 13.4531 15.9035 13.3125 16.0378 13.2781L17.9191 12.8C18.1816 12.7344 18.3878 12.5281 18.4597 12.2656C18.5316 12.0031 18.4535 11.7219 18.2597 11.5344L16.8691 10.1813C16.7691 10.0844 16.7691 9.92189 16.8691 9.82189L18.2597 8.46877C18.4535 8.27814 18.5316 8.00002 18.4597 7.73752C18.3878 7.47502 18.1816 7.27189 17.9191 7.20314L16.0378 6.72502C15.9003 6.69064 15.8191 6.55002 15.8597 6.41564L16.3878 4.54689C16.4628 4.28439 16.3878 4.00314 16.1972 3.81252C16.0066 3.62189 15.7253 3.54689 15.4628 3.62189L13.5941 4.15002C13.4597 4.18752 13.3191 4.10627 13.2847 3.97189L12.8066 2.08752C12.741 1.82502 12.5347 1.61877 12.2722 1.54689C12.0097 1.47502 11.7316 1.55314 11.541 1.74689L10.1878 3.14064C10.091 3.24064 9.92847 3.24064 9.82847 3.14064L8.47535 1.75002Z" fill="#0D6EFD"/>
<path d="M12.823 7.08957C13.0146 7.23953 13.0574 7.5279 12.9181 7.73409L9.48947 12.8095C9.4158 12.9191 9.30196 12.9868 9.17607 12.9984C9.05017 13.0099 8.92829 12.9594 8.8399 12.8643L7.12556 11.0187C6.95815 10.8384 6.95815 10.5457 7.12556 10.3655C7.29298 10.1853 7.56486 10.1853 7.73227 10.3655L9.09169 11.829L12.2257 7.19051C12.365 6.98432 12.6329 6.93818 12.8244 7.08813L12.823 7.08957Z" fill="white"/>
</svg>
