<svg width="13" height="13" viewBox="0 0 13 13" fill="none" xmlns="http://www.w3.org/2000/svg">
<mask id="mask0_2_3322" style="mask-type:alpha" maskUnits="userSpaceOnUse" x="0" y="0" width="13" height="13">
<g clip-path="url(#clip0_2_3322)">
<path d="M0.457031 0.185059H12.457V12.1851H0.457031V0.185059Z" fill="black"/>
</g>
</mask>
<g mask="url(#mask0_2_3322)">
<path d="M12.457 4.89813C12.457 4.72013 12.3224 4.60947 12.053 4.56613L8.43303 4.04013L6.81003 0.758135C6.71936 0.561468 6.6017 0.463135 6.45703 0.463135C6.31236 0.463135 6.1947 0.561468 6.10403 0.758135L4.48103 4.04013L0.861031 4.56613C0.591698 4.60947 0.457031 4.72013 0.457031 4.89813C0.457031 4.99813 0.517031 5.11347 0.637031 5.24413L3.26203 7.79713L2.64203 11.4031C2.6327 11.4698 2.62803 11.5178 2.62803 11.5471C2.62803 11.6478 2.65303 11.7331 2.70303 11.8031C2.7537 11.8731 2.8297 11.9081 2.93103 11.9081C3.03286 11.9041 3.13198 11.8741 3.21903 11.8211L6.45703 10.1191L9.69503 11.8211C9.78208 11.8741 9.8812 11.9041 9.98303 11.9081C10.181 11.9081 10.2797 11.7881 10.279 11.5481C10.279 11.4855 10.2767 11.4371 10.272 11.4031L9.65203 7.79713L12.27 5.24413C12.3947 5.11947 12.457 5.00413 12.457 4.89813Z" fill="#F14555"/>
</g>
<defs>
<clipPath id="clip0_2_3322">
<rect width="12" height="12" fill="white" transform="translate(0.457031 0.185059)"/>
</clipPath>
</defs>
</svg>
