<svg width="15" height="15" viewBox="0 0 15 15" fill="none" xmlns="http://www.w3.org/2000/svg">
<g clip-path="url(#clip0_4330_5885)">
<path d="M1.46008 6.46051C1.2643 6.27945 1.37065 5.95214 1.63546 5.92075L5.3877 5.47587C5.49562 5.46307 5.58937 5.39507 5.63489 5.29638L7.21753 1.86522C7.32922 1.62307 7.67346 1.62304 7.78516 1.86519L9.3678 5.29643C9.41332 5.39512 9.50645 5.46308 9.61438 5.47588L13.3668 5.92075C13.6316 5.95214 13.7379 6.27947 13.5421 6.46053L10.7682 9.02599C10.6884 9.09978 10.6528 9.20976 10.674 9.31636L11.4102 13.0225C11.4622 13.284 11.1838 13.4863 10.9511 13.3561L7.65403 11.5105C7.5592 11.4574 7.44367 11.4573 7.34884 11.5104L4.05141 13.3561C3.81872 13.4863 3.54007 13.2841 3.59204 13.0225L4.32847 9.31632C4.34965 9.20972 4.31407 9.09981 4.23428 9.02602L1.46008 6.46051Z" fill="#FFC107" stroke="#FFC107" stroke-width="2" stroke-linecap="round" stroke-linejoin="round"/>
</g>
<defs>
<clipPath id="clip0_4330_5885">
<rect width="15" height="15" fill="white"/>
</clipPath>
</defs>
</svg>
