<svg width="24" height="24" viewBox="0 0 24 24" fill="none" xmlns="http://www.w3.org/2000/svg">
<path d="M11 4C11 4.55228 11.4477 5 12 5C12.5523 5 13 4.55228 13 4H12H11ZM13 2C13 1.44772 12.5523 1 12 1C11.4477 1 11 1.44772 11 2H12H13ZM13 20C13 19.4477 12.5523 19 12 19C11.4477 19 11 19.4477 11 20H12H13ZM11 22C11 22.5523 11.4477 23 12 23C12.5523 23 13 22.5523 13 22H12H11ZM5.70711 7.12132C6.09763 7.51184 6.7308 7.51184 7.12132 7.12132C7.51184 6.7308 7.51184 6.09763 7.12132 5.70711L6.41421 6.41421L5.70711 7.12132ZM5.70711 4.29289C5.31658 3.90237 4.68342 3.90237 4.29289 4.29289C3.90237 4.68342 3.90237 5.31658 4.29289 5.70711L5 5L5.70711 4.29289ZM18.4351 17.0208C18.0446 16.6303 17.4114 16.6303 17.0209 17.0208C16.6304 17.4113 16.6304 18.0445 17.0209 18.435L17.728 17.7279L18.4351 17.0208ZM18.4351 19.8492C18.8257 20.2397 19.4588 20.2397 19.8493 19.8492C20.2399 19.4587 20.2399 18.8255 19.8493 18.435L19.1422 19.1421L18.4351 19.8492ZM4 13C4.55228 13 5 12.5523 5 12C5 11.4477 4.55228 11 4 11V12V13ZM2 11C1.44772 11 1 11.4477 1 12C1 12.5523 1.44772 13 2 13V12V11ZM20 11C19.4477 11 19 11.4477 19 12C19 12.5523 19.4477 13 20 13V12V11ZM22 13C22.5523 13 23 12.5523 23 12C23 11.4477 22.5523 11 22 11V12V13ZM17.0214 5.70711C16.6309 6.09763 16.6309 6.7308 17.0214 7.12132C17.4119 7.51184 18.0451 7.51184 18.4356 7.12132L17.7285 6.41421L17.0214 5.70711ZM19.8498 5.70711C20.2404 5.31658 20.2404 4.68342 19.8498 4.29289C19.4593 3.90237 18.8261 3.90237 18.4356 4.29289L19.1427 5L19.8498 5.70711ZM7.12181 18.435C7.51233 18.0445 7.51233 17.4113 7.12181 17.0208C6.73128 16.6303 6.09812 16.6303 5.7076 17.0208L6.4147 17.7279L7.12181 18.435ZM4.29338 18.435C3.90286 18.8255 3.90286 19.4587 4.29338 19.8492C4.68391 20.2397 5.31707 20.2397 5.70759 19.8492L5.00049 19.1421L4.29338 18.435ZM12 17V16C9.79086 16 8 14.2091 8 12H7H6C6 15.3137 8.68629 18 12 18V17ZM7 12H8C8 9.79086 9.79086 8 12 8V7V6C8.68629 6 6 8.68629 6 12H7ZM12 7V8C14.2091 8 16 9.79086 16 12H17H18C18 8.68629 15.3137 6 12 6V7ZM17 12H16C16 14.2091 14.2091 16 12 16V17V18C15.3137 18 18 15.3137 18 12H17ZM12 4H13V2H12H11V4H12ZM12 20H11V22H12H13V20H12ZM6.41421 6.41421L7.12132 5.70711L5.70711 4.29289L5 5L4.29289 5.70711L5.70711 7.12132L6.41421 6.41421ZM17.728 17.7279L17.0209 18.435L18.4351 19.8492L19.1422 19.1421L19.8493 18.435L18.4351 17.0208L17.728 17.7279ZM4 12V11H2V12V13H4V12ZM20 12V13H22V12V11H20V12ZM17.7285 6.41421L18.4356 7.12132L19.8498 5.70711L19.1427 5L18.4356 4.29289L17.0214 5.70711L17.7285 6.41421ZM6.4147 17.7279L5.7076 17.0208L4.29338 18.435L5.00049 19.1421L5.70759 19.8492L7.12181 18.435L6.4147 17.7279Z" fill="#FFC107"/>
</svg>
