<svg width="20" height="20" viewBox="0 0 20 20" fill="none" xmlns="http://www.w3.org/2000/svg">
<path d="M9 2.8C9 3.35228 9.44771 3.8 10 3.8C10.5523 3.8 11 3.35228 11 2.8H10H9ZM11 1C11 0.447715 10.5523 0 10 0C9.44771 0 9 0.447715 9 1H10H11ZM11 17.2C11 16.6477 10.5523 16.2 10 16.2C9.44771 16.2 9 16.6477 9 17.2H10H11ZM9 19C9 19.5523 9.44771 20 10 20C10.5523 20 11 19.5523 11 19H10H9ZM4.26569 5.6799C4.65621 6.07042 5.28937 6.07042 5.6799 5.6799C6.07042 5.28937 6.07042 4.65621 5.6799 4.26569L4.97279 4.97279L4.26569 5.6799ZM4.40711 2.99289C4.01658 2.60237 3.38342 2.60237 2.99289 2.99289C2.60237 3.38342 2.60237 4.01658 2.99289 4.40711L3.7 3.7L4.40711 2.99289ZM15.8623 14.448C15.4718 14.0575 14.8386 14.0575 14.4481 14.448C14.0576 14.8385 14.0576 15.4717 14.4481 15.8622L15.1552 15.1551L15.8623 14.448ZM15.7209 17.135C16.1114 17.5255 16.7446 17.5255 17.1351 17.135C17.5256 16.7445 17.5256 16.1113 17.1351 15.7208L16.428 16.4279L15.7209 17.135ZM2.8 11C3.35228 11 3.8 10.5523 3.8 10C3.8 9.44771 3.35228 9 2.8 9V10V11ZM1 9C0.447715 9 0 9.44771 0 10C0 10.5523 0.447715 11 1 11V10V9ZM17.2 9C16.6477 9 16.2 9.44771 16.2 10C16.2 10.5523 16.6477 11 17.2 11V10V9ZM19 11C19.5523 11 20 10.5523 20 10C20 9.44771 19.5523 9 19 9V10V11ZM14.4486 4.26569C14.058 4.65621 14.058 5.28937 14.4486 5.6799C14.8391 6.07042 15.4722 6.07042 15.8628 5.6799L15.1557 4.97279L14.4486 4.26569ZM17.1356 4.40711C17.5261 4.01658 17.5261 3.38342 17.1356 2.99289C16.745 2.60237 16.1119 2.60237 15.7213 2.99289L16.4285 3.7L17.1356 4.40711ZM5.68034 15.8622C6.07086 15.4717 6.07086 14.8385 5.68034 14.448C5.28981 14.0575 4.65665 14.0575 4.26612 14.448L4.97323 15.1551L5.68034 15.8622ZM2.99333 15.7208C2.60281 16.1113 2.60281 16.7445 2.99333 17.135C3.38386 17.5255 4.01702 17.5255 4.40755 17.135L3.70044 16.4279L2.99333 15.7208ZM10 14.5V13.5C8.067 13.5 6.5 11.933 6.5 10H5.5H4.5C4.5 13.0376 6.96243 15.5 10 15.5V14.5ZM5.5 10H6.5C6.5 8.067 8.067 6.5 10 6.5V5.5V4.5C6.96243 4.5 4.5 6.96243 4.5 10H5.5ZM10 5.5V6.5C11.933 6.5 13.5 8.067 13.5 10H14.5H15.5C15.5 6.96243 13.0376 4.5 10 4.5V5.5ZM14.5 10H13.5C13.5 11.933 11.933 13.5 10 13.5V14.5V15.5C13.0376 15.5 15.5 13.0376 15.5 10H14.5ZM10 2.8H11V1H10H9V2.8H10ZM10 17.2H9V19H10H11V17.2H10ZM4.97279 4.97279L5.6799 4.26569L4.40711 2.99289L3.7 3.7L2.99289 4.40711L4.26569 5.6799L4.97279 4.97279ZM15.1552 15.1551L14.4481 15.8622L15.7209 17.135L16.428 16.4279L17.1351 15.7208L15.8623 14.448L15.1552 15.1551ZM2.8 10V9H1V10V11H2.8V10ZM17.2 10V11H19V10V9H17.2V10ZM15.1557 4.97279L15.8628 5.6799L17.1356 4.40711L16.4285 3.7L15.7213 2.99289L14.4486 4.26569L15.1557 4.97279ZM4.97323 15.1551L4.26612 14.448L2.99333 15.7208L3.70044 16.4279L4.40755 17.135L5.68034 15.8622L4.97323 15.1551Z" fill="#FFC107"/>
</svg>
