<svg width="19" height="19" viewBox="0 0 19 19" fill="none" xmlns="http://www.w3.org/2000/svg">
<path fill-rule="evenodd" clip-rule="evenodd" d="M17.6572 9.18506C17.6572 13.6034 15.6755 17.1851 9.65723 17.1851C3.63895 17.1851 1.65723 13.6034 1.65723 9.18506C1.65723 4.76678 3.63895 1.18506 9.65723 1.18506C15.6755 1.18506 17.6572 4.76678 17.6572 9.18506ZM8.4816 10.4082C8.4816 10.7268 8.7399 10.9851 9.05853 10.9851H9.24506C9.53229 10.9851 9.77103 10.7638 9.79278 10.4774C9.81382 10.1185 10.1878 9.81383 10.6118 9.46835C10.7059 9.39166 10.8025 9.31294 10.8983 9.2312C11.4767 8.72351 12.0295 8.11197 12.0295 7.21197C12.0295 5.72351 10.744 4.98505 9.36858 4.98505C8.55311 4.98505 8.08965 5.23365 7.64781 5.65607C7.41033 5.88311 7.40819 6.25675 7.61451 6.51244C7.89002 6.85388 8.37563 6.81018 8.69729 6.51182C8.85612 6.3645 9.03419 6.26582 9.25289 6.26582C9.92133 6.26582 10.4098 6.62351 10.4098 7.2812C10.4098 7.85812 10.0113 8.28505 9.58711 8.70043C9.54359 8.74135 9.49983 8.78204 9.45614 8.82266C8.95782 9.28602 8.46979 9.73981 8.4816 10.4082ZM8.25723 12.4851C8.25723 11.988 8.66017 11.5851 9.15723 11.5851C9.65429 11.5851 10.0572 11.988 10.0572 12.4851V12.4926C10.0572 12.9896 9.65429 13.3926 9.15723 13.3926C8.66017 13.3926 8.25723 12.9896 8.25723 12.4926V12.4851Z" fill="#A7A7B2"/>
</svg>
