<svg width="66" height="21" viewBox="0 0 66 21" fill="none" xmlns="http://www.w3.org/2000/svg">
<g clip-path="url(#clip0_1_3820)">
<g clip-path="url(#clip1_1_3820)">
<g clip-path="url(#clip2_1_3820)">
<mask id="mask0_1_3820" style="mask-type:luminance" maskUnits="userSpaceOnUse" x="0" y="0" width="66" height="21">
<path d="M65.9072 0.774902H0.907227V20.7749H65.9072V0.774902Z" fill="white"/>
</mask>
<g mask="url(#mask0_1_3820)">
<path d="M32.9414 9.21549C32.4981 9.04497 31.9184 8.99384 31.2875 8.99384H27.7747V7.90252H33.8111V6.02686H25.3022V14.1435H31.0657C31.8672 14.1435 32.4639 14.0753 32.9074 13.9047C33.8452 13.5466 34.4761 12.677 34.4761 11.5345C34.4761 10.3751 33.8793 9.5736 32.9414 9.21549ZM31.7137 12.029C31.5773 12.0802 31.3897 12.0972 31.1509 12.0972H27.7747V10.8013H31.1509C31.4239 10.8013 31.6454 10.8185 31.816 10.9036C32.0206 11.006 32.1229 11.1936 32.1229 11.4322C32.1229 11.6709 32.0036 11.9267 31.7137 12.029Z" fill="#333333"/>
<path d="M41.409 6.02686H37.7941L34.469 14.1435H37.2655L37.7259 12.9669H41.4772L41.9547 14.1435H44.7342L41.409 6.02686ZM38.3397 11.1764L39.5164 7.90252H39.7039L40.8804 11.1764H38.3397Z" fill="#333333"/>
<path d="M47.9165 11.1254V14.1435H45.4441V6.02686H47.9165V8.99387H51.8895V6.02686H54.3621V14.1435H51.8895V11.1254H47.9165Z" fill="#333333"/>
<path d="M58.2757 11.0742V14.1435H55.8032V6.02686H58.2757V9.07913H58.9578L61.9419 6.02686H65.0452L61.0892 9.91465L65.1987 14.1435H61.9077L58.9578 11.0742H58.2757Z" fill="#333333"/>
<path d="M0.952637 0.809082H20.6642V10.7226C20.6642 13.264 19.3084 15.6124 17.1077 16.8832L10.8084 20.5207L4.50919 16.8832C2.30837 15.6124 0.952637 13.264 0.952637 10.7226V0.809082Z" fill="#FFDD2D"/>
<path fill-rule="evenodd" clip-rule="evenodd" d="M6.36206 6.02686V9.11017C6.78369 8.63405 7.55029 8.31181 8.42679 8.31181H9.37931V11.8961C9.37931 12.8497 9.12021 13.6844 8.73578 14.1435H12.879C12.4954 13.6839 12.2369 12.8503 12.2369 11.8979V8.31181H13.1894C14.0659 8.31181 14.8325 8.63405 15.2541 9.11017V6.02686H6.36206Z" fill="#333333"/>
</g>
</g>
</g>
</g>
<defs>
<clipPath id="clip0_1_3820">
<rect width="65" height="20" fill="white" transform="translate(0.907227 0.774902)"/>
</clipPath>
<clipPath id="clip1_1_3820">
<rect width="65" height="20" fill="white" transform="translate(0.907227 0.774902)"/>
</clipPath>
<clipPath id="clip2_1_3820">
<rect width="65" height="20" fill="white" transform="translate(0.907227 0.774902)"/>
</clipPath>
</defs>
</svg>
