<svg width="36" height="36" viewBox="0 0 36 36" fill="none" xmlns="http://www.w3.org/2000/svg">
<path d="M33.75 28.125H2.25V30.375H4.5V32.625H6.75V30.375H12.375V32.625H14.625V30.375H20.25V32.625H22.5V30.375H28.125V32.625H30.375V30.375H33.75V28.125ZM33.4283 18.6638L20.4187 9.72002C17.6079 7.78146 14.273 6.74545 10.8585 6.75002H2.25V9.00001H10.8585C13.8176 8.996 16.7078 9.89345 19.1441 11.5729L20.3096 12.375H10.125V14.625H23.5823L32.1548 20.5178C32.346 20.6493 32.4901 20.8385 32.566 21.0578C32.6419 21.2771 32.6456 21.515 32.5766 21.7365C32.5076 21.9581 32.3694 22.1518 32.1824 22.2891C31.9953 22.4265 31.7692 22.5004 31.5371 22.5H2.25V24.75H31.5382C32.2503 24.7499 32.9436 24.522 33.5168 24.0997C34.0901 23.6774 34.5132 23.0828 34.7243 22.4028C34.9355 21.7229 34.9236 20.9932 34.6904 20.3204C34.4572 19.6477 34.0149 19.0672 33.4283 18.6638Z" fill="#0090FF"/>
</svg>
