<svg width="36" height="36" viewBox="0 0 36 36" fill="none" xmlns="http://www.w3.org/2000/svg">
<path d="M2.25 28.125H33.75V30.375H31.5V32.625H29.25V30.375H23.625V32.625H21.375V30.375H15.75V32.625H13.5V30.375H7.875V32.625H5.625V30.375H2.25V28.125ZM2.57175 18.6638L15.5813 9.72002C18.3921 7.78146 21.727 6.74545 25.1415 6.75002H33.75V9.00001H25.1415C22.1824 8.996 19.2922 9.89345 16.8559 11.5729L15.6904 12.375H25.875V14.625H12.4177L3.84525 20.5178C3.65401 20.6493 3.50989 20.8385 3.43399 21.0578C3.35808 21.2771 3.35437 21.515 3.42341 21.7365C3.49245 21.9581 3.6306 22.1518 3.81764 22.2891C4.00469 22.4265 4.2308 22.5004 4.46287 22.5H33.75V24.75H4.46175C3.74974 24.7499 3.05644 24.522 2.48319 24.0997C1.90994 23.6774 1.48681 23.0828 1.27565 22.4028C1.0645 21.7229 1.07639 20.9932 1.30958 20.3204C1.54278 19.6477 1.98505 19.0672 2.57175 18.6638Z" fill="#0090FF"/>
</svg>
