<svg width="24" height="24" viewBox="0 0 24 24" fill="none" xmlns="http://www.w3.org/2000/svg">
<path d="M12.0498 15.45H13.0498C13.0498 14.8977 12.6021 14.45 12.0498 14.45V15.45ZM12.0498 15.55L12.0496 16.55C12.3148 16.55 12.5692 16.4447 12.7568 16.2571C12.9444 16.0696 13.0498 15.8152 13.0498 15.55H12.0498ZM11.9502 15.5499H10.9502C10.9502 16.1021 11.3978 16.5498 11.9499 16.5499L11.9502 15.5499ZM11.9502 15.45V14.45C11.3979 14.45 10.9502 14.8977 10.9502 15.45H11.9502ZM13 8.44995C13 7.89767 12.5523 7.44995 12 7.44995C11.4477 7.44995 11 7.89767 11 8.44995H12H13ZM11 12.45C11 13.0022 11.4477 13.45 12 13.45C12.5523 13.45 13 13.0022 13 12.45H12H11ZM12 21V20C7.58172 20 4 16.4183 4 12H3H2C2 17.5228 6.47715 22 12 22V21ZM3 12H4C4 7.58172 7.58172 4 12 4V3V2C6.47715 2 2 6.47715 2 12H3ZM12 3V4C16.4183 4 20 7.58172 20 12H21H22C22 6.47715 17.5228 2 12 2V3ZM21 12H20C20 16.4183 16.4183 20 12 20V21V22C17.5228 22 22 17.5228 22 12H21ZM12.0498 15.45H11.0498V15.55H12.0498H13.0498V15.45H12.0498ZM12.0498 15.55L12.0501 14.55L11.9504 14.5499L11.9502 15.5499L11.9499 16.5499L12.0496 16.55L12.0498 15.55ZM11.9502 15.5499H12.9502V15.45H11.9502H10.9502V15.5499H11.9502ZM11.9502 15.45V16.45H12.0498V15.45V14.45H11.9502V15.45ZM12 8.44995H11V12.45H12H13V8.44995H12Z" fill="#5EB7FC"/>
</svg>
