<svg width="24" height="25" viewBox="0 0 24 25" fill="none" xmlns="http://www.w3.org/2000/svg">
<g clip-path="url(#clip0_4330_5248)">
<rect y="0.5" width="24" height="24" rx="6" fill="white"/>
<path d="M12.1255 6.18115C8.7187 6.18115 5.95898 8.92183 5.95898 12.3096C5.95898 13.6419 6.39673 14.898 7.139 15.9068L6.35867 18.1907L8.73773 17.4294C9.70839 18.0765 10.8884 18.4381 12.1446 18.4381C15.5514 18.4381 18.3301 15.6974 18.3301 12.3096C18.3111 8.92183 15.5323 6.18115 12.1255 6.18115ZM15.7417 14.8409C15.5894 15.2597 14.8472 15.6593 14.5236 15.6974C14.2001 15.7355 14.2001 15.9639 12.3539 15.2597C10.5268 14.5364 9.3658 12.6903 9.27064 12.557C9.17548 12.4428 8.52837 11.5864 8.52837 10.7109C8.52837 9.8354 8.98515 9.39765 9.15645 9.22635C9.32774 9.05506 9.51806 8.99796 9.63226 8.99796C9.74645 8.99796 9.87968 9.017 9.97485 9.017C10.089 9.017 10.2223 8.9599 10.3745 9.32152C10.5268 9.68313 10.8884 10.5586 10.9265 10.6538C10.9645 10.749 11.0026 10.8441 10.9455 10.9583C10.8884 11.0725 10.8503 11.1486 10.7742 11.2628C10.679 11.358 10.5839 11.4912 10.5078 11.5674C10.4126 11.6625 10.3174 11.7577 10.4316 11.929C10.5458 12.1003 10.9074 12.6903 11.4403 13.1661C12.1255 13.7751 12.7155 13.9655 12.8868 14.0606C13.0581 14.1558 13.1723 14.1367 13.2675 14.0225C13.3817 13.9084 13.7243 13.5087 13.8384 13.3183C13.9526 13.1471 14.0859 13.1661 14.2381 13.2232C14.4094 13.2803 15.2849 13.718 15.4752 13.8132C15.6465 13.9084 15.7798 13.9464 15.8178 14.0225C15.8749 14.0606 15.8749 14.4222 15.7417 14.8409Z" fill="#12C647"/>
<path d="M17.9667 0.5H6.01427C2.70262 0.5 0 3.20476 0 6.51905V18.5C0 21.7952 2.70262 24.5 6.01427 24.5H17.9857C21.2974 24.5 24 21.7952 24 18.481V6.51905C23.981 3.20476 21.2784 0.5 17.9667 0.5ZM12.1237 19.6048C11.0739 19.6048 10.0867 19.3917 9.18246 18.9961C8.90317 18.8739 8.76352 18.8128 8.65714 18.7916C8.55048 18.7704 8.47869 18.7667 8.3704 18.7766C8.26239 18.7866 8.1441 18.8242 7.90752 18.8994L7.51545 19.0241C6.5411 19.334 6.05392 19.4889 5.73149 19.3696C5.45087 19.2658 5.23149 19.0418 5.13356 18.759C5.02104 18.4342 5.18612 17.9504 5.51628 16.9827L5.58342 16.7859C5.66982 16.5327 5.71301 16.4061 5.72436 16.2908C5.73576 16.1748 5.73151 16.0987 5.70728 15.9848C5.68317 15.8714 5.61297 15.7225 5.47258 15.4245C5.02571 14.4761 4.77716 13.4177 4.77716 12.3095C4.77716 8.27143 8.06979 5.01429 12.1237 5.01429C16.1776 5.01429 19.4703 8.27143 19.4703 12.3095C19.4703 16.3476 16.1776 19.6048 12.1237 19.6048Z" fill="white"/>
</g>
<defs>
<clipPath id="clip0_4330_5248">
<rect y="0.5" width="24" height="24" rx="6" fill="white"/>
</clipPath>
</defs>
</svg>
