<svg width="14" height="14" viewBox="0 0 14 14" fill="none" xmlns="http://www.w3.org/2000/svg">
<path d="M3.7089 12.5918C3.53557 12.6496 3.3839 12.6279 3.2539 12.5268C3.1239 12.4257 3.07335 12.274 3.10223 12.0718L3.75223 8.25844L0.892235 5.52844C0.776679 5.384 0.740568 5.22511 0.783902 5.05178C0.827235 4.87844 0.950013 4.77733 1.15223 4.74844L5.09557 4.18511L6.87223 0.67511C6.9589 0.501777 7.0889 0.41511 7.26223 0.41511C7.43557 0.41511 7.56557 0.501777 7.65223 0.67511L9.4289 4.18511L13.4156 4.74844C13.5889 4.77733 13.6972 4.87844 13.7406 5.05178C13.7839 5.22511 13.7478 5.384 13.6322 5.52844L10.7722 8.25844L11.4222 12.0718C11.4511 12.274 11.4006 12.4257 11.2706 12.5268C11.1406 12.6279 10.9889 12.6496 10.8156 12.5918L7.26223 10.7284L3.7089 12.5918Z" fill="#FFC107"/>
</svg>
